<mxfile host="65bd71144e">
    <diagram id="XFmrAFkPOiRvbmgVfRLa" name="Page-1">
        <mxGraphModel dx="1157" dy="874" grid="1" gridSize="10" guides="1" tooltips="1" connect="1" arrows="1" fold="1" page="1" pageScale="1" pageWidth="850" pageHeight="1100" math="0" shadow="0">
            <root>
                <mxCell id="0"/>
                <mxCell id="1" parent="0"/>
                <mxCell id="2" value="" style="verticalLabelPosition=bottom;verticalAlign=top;html=1;shadow=0;dashed=0;strokeWidth=1;shape=mxgraph.android.phone2;strokeColor=#c0c0c0;" parent="1" vertex="1">
                    <mxGeometry x="170" y="20" width="500" height="1000" as="geometry"/>
                </mxCell>
                <mxCell id="3" value="" style="group" parent="1" vertex="1" connectable="0">
                    <mxGeometry x="200" y="106" width="465" height="820" as="geometry"/>
                </mxCell>
                <mxCell id="4" value="" style="rounded=0;whiteSpace=wrap;html=1;strokeColor=#FFFFFF;fontSize=17;fontColor=#666666;fillColor=#FFFFFF;" parent="3" vertex="1">
                    <mxGeometry x="-10.108695652173914" width="465" height="820" as="geometry"/>
                </mxCell>
                <mxCell id="33" value="&lt;font color=&quot;#666666&quot; style=&quot;font-size: 17px;&quot;&gt;&lt;b&gt;-&lt;/b&gt;&lt;/font&gt;" style="text;align=center;html=1;verticalAlign=middle;whiteSpace=wrap;rounded=0;fillColor=none;gradientColor=none;fontColor=#000000;" parent="3" vertex="1">
                    <mxGeometry x="311.6847826086957" y="649.1666666666666" width="33.69565217391305" height="27.333333333333336" as="geometry"/>
                </mxCell>
                <mxCell id="73" value="" style="rounded=0;whiteSpace=wrap;html=1;fillColor=#f0f0f0;" parent="3" vertex="1">
                    <mxGeometry width="450" height="70" as="geometry"/>
                </mxCell>
                <mxCell id="74" value="" style="shape=mxgraph.signs.tech.telephone_3;html=1;pointerEvents=1;fillColor=#007FFF;strokeColor=none;verticalLabelPosition=bottom;verticalAlign=top;align=center;" parent="3" vertex="1">
                    <mxGeometry x="345.3838043478261" y="20" width="30.326086956521742" height="30" as="geometry"/>
                </mxCell>
                <mxCell id="75" value="" style="html=1;verticalLabelPosition=bottom;align=center;labelBackgroundColor=#ffffff;verticalAlign=top;strokeWidth=2;strokeColor=#0080F0;shadow=0;dashed=0;shape=mxgraph.ios7.icons.video_conversation;fillColor=#007FFF;" parent="3" vertex="1">
                    <mxGeometry x="404.34782608695656" y="27.5" width="30.326086956521742" height="15" as="geometry"/>
                </mxCell>
                <mxCell id="77" value="&lt;font color=&quot;#000000&quot;&gt;&lt;span style=&quot;font-size: 18px;&quot;&gt;&lt;b&gt;Pusat Bantuan&lt;/b&gt;&lt;/span&gt;&lt;/font&gt;" style="text;strokeColor=none;align=center;fillColor=none;html=1;verticalAlign=middle;whiteSpace=wrap;rounded=0;" parent="3" vertex="1">
                    <mxGeometry x="65.70652173913044" y="20" width="171.84782608695653" height="30" as="geometry"/>
                </mxCell>
                <mxCell id="79" value="" style="ellipse;whiteSpace=wrap;html=1;aspect=fixed;fontSize=18;fontColor=#000000;fillColor=#F0F0F0;strokeColor=#666666;gradientColor=none;" parent="3" vertex="1">
                    <mxGeometry x="15.163043478260871" y="5" width="60" height="60" as="geometry"/>
                </mxCell>
                <mxCell id="80" value="" style="verticalLabelPosition=bottom;html=1;verticalAlign=top;align=center;shape=mxgraph.azure.user;fontSize=18;" parent="3" vertex="1">
                    <mxGeometry x="27.79891304347826" y="15" width="35.380434782608695" height="40" as="geometry"/>
                </mxCell>
                <mxCell id="87" value="" style="html=1;verticalLabelPosition=bottom;align=center;labelBackgroundColor=#ffffff;verticalAlign=top;strokeWidth=2;strokeColor=#0080F0;shadow=0;dashed=0;shape=mxgraph.ios7.icons.message;rounded=1;fontSize=18;fontColor=#000000;fillColor=#007FFF;gradientColor=none;rotation=-90;" parent="3" vertex="1">
                    <mxGeometry x="296.81" y="-30.31" width="48.33" height="267.94" as="geometry"/>
                </mxCell>
                <mxCell id="88" value="&lt;span style=&quot;font-family: Söhne, ui-sans-serif, system-ui, -apple-system, &amp;quot;Segoe UI&amp;quot;, Roboto, Ubuntu, Cantarell, &amp;quot;Noto Sans&amp;quot;, sans-serif, &amp;quot;Helvetica Neue&amp;quot;, Arial, &amp;quot;Apple Color Emoji&amp;quot;, &amp;quot;Segoe UI Emoji&amp;quot;, &amp;quot;Segoe UI Symbol&amp;quot;, &amp;quot;Noto Color Emoji&amp;quot;; font-size: 16px; background-color: rgb(0, 127, 255);&quot;&gt;&lt;font color=&quot;#ffffff&quot;&gt;Halo, Apakah ini pusat bantuan kereta api?&lt;/font&gt;&lt;/span&gt;" style="text;strokeColor=none;align=left;fillColor=none;html=1;verticalAlign=middle;whiteSpace=wrap;rounded=0;fontSize=18;fontColor=#000000;" parent="3" vertex="1">
                    <mxGeometry x="187.01521739130433" y="55.03999999999999" width="247.66304347826087" height="97.25" as="geometry"/>
                </mxCell>
                <mxCell id="98" value="" style="html=1;verticalLabelPosition=bottom;align=center;labelBackgroundColor=#ffffff;verticalAlign=top;strokeWidth=2;strokeColor=#0080F0;shadow=0;dashed=0;shape=mxgraph.ios7.icons.message;rounded=1;fontSize=18;fontColor=#FFFFFF;fillColor=#CCCCCC;gradientColor=none;rotation=-180;" parent="3" vertex="1">
                    <mxGeometry y="110" width="151.63043478260872" height="70" as="geometry"/>
                </mxCell>
                <mxCell id="99" value="&lt;div style=&quot;text-align: start;&quot;&gt;&lt;font face=&quot;Söhne, ui-sans-serif, system-ui, -apple-system, Segoe UI, Roboto, Ubuntu, Cantarell, Noto Sans, sans-serif, Helvetica Neue, Arial, Apple Color Emoji, Segoe UI Emoji, Segoe UI Symbol, Noto Color Emoji&quot;&gt;&lt;span style=&quot;font-size: 16px; background-color: rgb(204, 204, 204);&quot;&gt;Benar, Ada yang bisa saya bantu&lt;/span&gt;&lt;/font&gt;&lt;/div&gt;" style="text;strokeColor=none;align=center;fillColor=none;html=1;verticalAlign=middle;whiteSpace=wrap;rounded=0;fontSize=18;fontColor=#000000;" parent="3" vertex="1">
                    <mxGeometry x="12.635869565217392" y="130" width="126.35869565217392" height="40" as="geometry"/>
                </mxCell>
                <mxCell id="101" value="" style="html=1;verticalLabelPosition=bottom;align=center;labelBackgroundColor=#ffffff;verticalAlign=top;strokeWidth=2;strokeColor=#0080F0;shadow=0;dashed=0;shape=mxgraph.ios7.icons.message;rounded=1;fontSize=18;fontColor=#000000;fillColor=#007FFF;gradientColor=none;rotation=-90;" parent="3" vertex="1">
                    <mxGeometry x="277.37" y="82.13" width="51.81" height="305.25" as="geometry"/>
                </mxCell>
                <mxCell id="103" value="&lt;span style=&quot;font-family: Söhne, ui-sans-serif, system-ui, -apple-system, &amp;quot;Segoe UI&amp;quot;, Roboto, Ubuntu, Cantarell, &amp;quot;Noto Sans&amp;quot;, sans-serif, &amp;quot;Helvetica Neue&amp;quot;, Arial, &amp;quot;Apple Color Emoji&amp;quot;, &amp;quot;Segoe UI Emoji&amp;quot;, &amp;quot;Segoe UI Symbol&amp;quot;, &amp;quot;Noto Color Emoji&amp;quot;; font-size: 16px; background-color: rgb(0, 127, 255);&quot;&gt;&lt;font color=&quot;#ffffff&quot;&gt;Saya ingin menanyakan tentang jam rute kereta ini&lt;/font&gt;&lt;/span&gt;" style="text;strokeColor=none;align=left;fillColor=none;html=1;verticalAlign=middle;whiteSpace=wrap;rounded=0;fontSize=18;fontColor=#000000;" parent="3" vertex="1">
                    <mxGeometry x="151.63" y="186.13" width="248.37" height="97.25" as="geometry"/>
                </mxCell>
                <mxCell id="105" value="" style="html=1;verticalLabelPosition=bottom;align=center;labelBackgroundColor=#ffffff;verticalAlign=top;strokeWidth=2;strokeColor=#0080F0;shadow=0;dashed=0;shape=mxgraph.ios7.icons.message;rounded=1;fontSize=18;fontColor=#FFFFFF;fillColor=#CCCCCC;gradientColor=none;rotation=-180;" parent="3" vertex="1">
                    <mxGeometry y="310" width="181.95652173913044" height="70" as="geometry"/>
                </mxCell>
                <mxCell id="107" value="&lt;div style=&quot;text-align: start;&quot;&gt;&lt;font face=&quot;Söhne, ui-sans-serif, system-ui, -apple-system, Segoe UI, Roboto, Ubuntu, Cantarell, Noto Sans, sans-serif, Helvetica Neue, Arial, Apple Color Emoji, Segoe UI Emoji, Segoe UI Symbol, Noto Color Emoji&quot;&gt;&lt;span style=&quot;font-size: 16px; background-color: rgb(204, 204, 204);&quot;&gt;Tentu Saja saya akan membantu&lt;/span&gt;&lt;/font&gt;&lt;/div&gt;" style="text;strokeColor=none;align=center;fillColor=none;html=1;verticalAlign=middle;whiteSpace=wrap;rounded=0;fontSize=18;fontColor=#000000;" parent="3" vertex="1">
                    <mxGeometry x="15.163043478260871" y="330" width="126.35869565217392" height="40" as="geometry"/>
                </mxCell>
                <mxCell id="108" value="" style="html=1;verticalLabelPosition=bottom;align=center;labelBackgroundColor=#ffffff;verticalAlign=top;strokeWidth=2;strokeColor=#0080F0;shadow=0;dashed=0;shape=mxgraph.ios7.icons.message;rounded=1;fontSize=18;fontColor=#000000;fillColor=#007FFF;gradientColor=none;rotation=-90;" parent="3" vertex="1">
                    <mxGeometry x="279.98" y="274.77" width="51.82" height="299.99" as="geometry"/>
                </mxCell>
                <mxCell id="109" value="&lt;span style=&quot;color: rgb(255, 255, 255); font-family: Söhne, ui-sans-serif, system-ui, -apple-system, &amp;quot;Segoe UI&amp;quot;, Roboto, Ubuntu, Cantarell, &amp;quot;Noto Sans&amp;quot;, sans-serif, &amp;quot;Helvetica Neue&amp;quot;, Arial, &amp;quot;Apple Color Emoji&amp;quot;, &amp;quot;Segoe UI Emoji&amp;quot;, &amp;quot;Segoe UI Symbol&amp;quot;, &amp;quot;Noto Color Emoji&amp;quot;; font-size: 16px; background-color: rgb(0, 127, 255);&quot;&gt;Kira kira jam berapa sampai kereta ini ke stasiun?&lt;/span&gt;" style="text;strokeColor=none;align=left;fillColor=none;html=1;verticalAlign=middle;whiteSpace=wrap;rounded=0;fontSize=18;fontColor=#000000;" parent="3" vertex="1">
                    <mxGeometry x="156.68478260869566" y="374.76" width="262.82608695652175" height="100" as="geometry"/>
                </mxCell>
                <mxCell id="110" value="" style="html=1;verticalLabelPosition=bottom;align=center;labelBackgroundColor=#ffffff;verticalAlign=top;strokeWidth=2;strokeColor=#0080F0;shadow=0;dashed=0;shape=mxgraph.ios7.icons.message;rounded=1;fontSize=18;fontColor=#FFFFFF;fillColor=#CCCCCC;gradientColor=none;rotation=-180;" parent="3" vertex="1">
                    <mxGeometry y="474.76" width="262.82608695652175" height="74.76" as="geometry"/>
                </mxCell>
                <mxCell id="111" value="&lt;div style=&quot;text-align: start;&quot;&gt;&lt;font face=&quot;Söhne, ui-sans-serif, system-ui, -apple-system, Segoe UI, Roboto, Ubuntu, Cantarell, Noto Sans, sans-serif, Helvetica Neue, Arial, Apple Color Emoji, Segoe UI Emoji, Segoe UI Symbol, Noto Color Emoji&quot;&gt;&lt;span style=&quot;font-size: 16px; background-color: rgb(204, 204, 204);&quot;&gt;Sesuai Jadwal yang ada, kereta sampai distasiun jam 10.00&lt;/span&gt;&lt;/font&gt;&lt;/div&gt;" style="text;strokeColor=none;align=center;fillColor=none;html=1;verticalAlign=middle;whiteSpace=wrap;rounded=0;fontSize=18;fontColor=#000000;" parent="3" vertex="1">
                    <mxGeometry x="11.372282608695652" y="500" width="240.08152173913044" height="40" as="geometry"/>
                </mxCell>
                <mxCell id="102" value="" style="html=1;verticalLabelPosition=bottom;align=center;labelBackgroundColor=#ffffff;verticalAlign=top;strokeWidth=2;strokeColor=#0080F0;shadow=0;dashed=0;shape=mxgraph.ios7.icons.message;rounded=1;fontSize=18;fontColor=#000000;fillColor=#007FFF;gradientColor=none;rotation=-90;" parent="3" vertex="1">
                    <mxGeometry x="291.75" y="499.59" width="71.59" height="248.97" as="geometry"/>
                </mxCell>
                <mxCell id="112" value="&lt;span style=&quot;color: rgb(255, 255, 255); font-family: Söhne, ui-sans-serif, system-ui, -apple-system, &amp;quot;Segoe UI&amp;quot;, Roboto, Ubuntu, Cantarell, &amp;quot;Noto Sans&amp;quot;, sans-serif, &amp;quot;Helvetica Neue&amp;quot;, Arial, &amp;quot;Apple Color Emoji&amp;quot;, &amp;quot;Segoe UI Emoji&amp;quot;, &amp;quot;Segoe UI Symbol&amp;quot;, &amp;quot;Noto Color Emoji&amp;quot;; font-size: 16px; background-color: rgb(0, 127, 255);&quot;&gt;Terima kasih atas bantuannya, senang bisa menaiki kereta ini&lt;/span&gt;" style="text;strokeColor=none;align=left;fillColor=none;html=1;verticalAlign=middle;whiteSpace=wrap;rounded=0;fontSize=18;fontColor=#000000;" parent="3" vertex="1">
                    <mxGeometry x="205.66" y="576.5" width="214.34" height="100" as="geometry"/>
                </mxCell>
                <mxCell id="106" value="" style="html=1;verticalLabelPosition=bottom;align=center;labelBackgroundColor=#ffffff;verticalAlign=top;strokeWidth=2;strokeColor=#0080F0;shadow=0;dashed=0;shape=mxgraph.ios7.icons.message;rounded=1;fontSize=18;fontColor=#FFFFFF;fillColor=#CCCCCC;gradientColor=none;rotation=-180;" parent="3" vertex="1">
                    <mxGeometry y="670" width="272.9347826086957" height="90" as="geometry"/>
                </mxCell>
                <mxCell id="113" value="&lt;div style=&quot;text-align: start;&quot;&gt;&lt;font face=&quot;Söhne, ui-sans-serif, system-ui, -apple-system, Segoe UI, Roboto, Ubuntu, Cantarell, Noto Sans, sans-serif, Helvetica Neue, Arial, Apple Color Emoji, Segoe UI Emoji, Segoe UI Symbol, Noto Color Emoji&quot;&gt;&lt;span style=&quot;font-size: 16px; background-color: rgb(204, 204, 204);&quot;&gt;Sama-sama sudah menjadi tugas saya membantu penumpang. Semoga sampai dengan selamat&lt;/span&gt;&lt;/font&gt;&lt;/div&gt;" style="text;strokeColor=none;align=center;fillColor=none;html=1;verticalAlign=middle;whiteSpace=wrap;rounded=0;fontSize=18;fontColor=#000000;" parent="3" vertex="1">
                    <mxGeometry x="15.163043478260871" y="700" width="240.08152173913044" height="40" as="geometry"/>
                </mxCell>
                <mxCell id="118" value="" style="group" parent="3" vertex="1" connectable="0">
                    <mxGeometry x="-10" y="735" width="464" height="36" as="geometry"/>
                </mxCell>
                <mxCell id="115" value="" style="rounded=1;whiteSpace=wrap;html=1;strokeColor=#666666;fontSize=18;fontColor=#000000;fillColor=#F0F0F0;gradientColor=none;arcSize=50;rotation=0;" parent="118" vertex="1">
                    <mxGeometry width="464" height="39.12" as="geometry"/>
                </mxCell>
                <mxCell id="116" value="&lt;font color=&quot;#000000&quot;&gt;&lt;span style=&quot;font-size: 18px;&quot;&gt;Type a message&lt;/span&gt;&lt;/font&gt;" style="text;strokeColor=none;align=center;fillColor=none;html=1;verticalAlign=middle;whiteSpace=wrap;rounded=0;" parent="118" vertex="1">
                    <mxGeometry x="0.003219575016106712" y="5.7" width="181.79100358752646" height="27" as="geometry"/>
                </mxCell>
                <mxCell id="117" value="" style="html=1;verticalLabelPosition=bottom;align=center;labelBackgroundColor=#ffffff;verticalAlign=top;strokeWidth=2;strokeColor=#000000;shadow=0;dashed=0;shape=mxgraph.ios7.icons.camera;rounded=1;fontSize=18;fontColor=#000000;fillColor=#F0F0F0;gradientColor=none;" parent="118" vertex="1">
                    <mxGeometry x="396.1815840309079" y="10.169999999999959" width="32.08076533897526" height="15.66" as="geometry"/>
                </mxCell>
                <mxCell id="120" value="" style="group" parent="1" vertex="1" connectable="0">
                    <mxGeometry x="190" y="880" width="469" height="50" as="geometry"/>
                </mxCell>
                <mxCell id="121" value="" style="rounded=0;whiteSpace=wrap;html=1;fillColor=#1BA1E2;rotation=0;" parent="120" vertex="1">
                    <mxGeometry width="465" height="50" as="geometry"/>
                </mxCell>
                <mxCell id="122" value="" style="shape=image;verticalLabelPosition=bottom;labelBackgroundColor=default;verticalAlign=top;aspect=fixed;imageAspect=0;image=data:image/png,iVBORw0KGgoAAAANSUhEUgAAAgAAAAIACAYAAAD0eNT6AAAACXBIWXMAAA7DAAAOwwHHb6hkAAAAGXRFWHRTb2Z0d2FyZQB3d3cuaW5rc2NhcGUub3Jnm+48GgAAIABJREFUeJzt3Xm0JlV57/FvD3Q30IwK6RaZmhkEFGQSRBkccJ6A1gjGeDU4xKCJUa+SkHiTGDHOWQbBIUQDgl4TwSmiKKIoKoogKgg0IPMoDXTTQJ/7xz7v9XA4wztU1bOr9vez1rNABfdTdU6/+/dW7do1hzwtB06PbkLSlNYALwXOiW5E0vDmRjcgqXUWAF8EnhfdiKThGQAkDcMQILWcAUDSsAwBUosZACSNwhAgtZQBQNKoDAFSCxkAJFXBECC1jAFAUlUMAVKLGAAkVckQILWEAUBS1QwBUgsYACTVwRAgZc4AIKkuhgApYwYASXUyBEiZMgBIqpshQMqQAUBSEwwBUmYMAJKaYgiQMmIAkNQkQ4CUCQOApKYZAqQMGAAkRTAESMEMAJKiGAKkQAYASZEMAVIQA4CkaIYAKYABQFIODAFSwwwAknJhCJAaZACQlBNDgNQQA4Ck3BgCpAYYACTlyBAg1cwAIClXhgCpRgYASTkzBEg1MQBIyp0hQCrIcmAsoE5v4uCkBr2DmD9LddQDGAKkyngFQFJbeCVAqpABQFKbGAKkihgAJLWNIUCqgAFAUhsZAqQRGQAktZUhQBqBAUBSmxkCpCEZACS1nSFAGoIBQFIXGAKkARkAJHWFIUAagAFAUpcYAqQ+GQAkdY0hQOqDAUBSFxkCpFkYACR1lSFAmoEBQFKXGQKkaRgAJHWdIUCaggFAUgkMAdIkBgBJpTAESBMYACSVxBAgjTMASCqNIUDCACCpTIYAFc8AIKkO3wZWRjcxiwXAWcCzohuRIhgAJNXhIuDZ5B8CFgFfxisBKpABQFJdfkA7QoC3A1QkA4CkOhkCpEwZACTVzRAgZcgAIKkJhgApMwYASU0xBEgZMQBIapIhQMqEAUBS0wwBUgYMAJIiGAKkYAYASVEMAVIgA4CkSIYAKYgBQFI0Q4AUwAAgKQeGAKlhBgBJuTAESA0yAEjKiSFAaogBQFJuDAFSAwwAyt2rgaXRTahxhgCpZgYA5ex44FPAd4DHxbaiAIYAqUYGAOXqeOCD43+/I3AehoASGQKkmhgAlKOJk3+PIaBchgCpBgYA5Waqyb/HEFAuQ4BUMQOAcjLT5N9jCCiXIUCqkAFAuehn8u8xBJTLECBVxACgHAwy+fcYAsplCJAqYABQtGEm/x5DQLkMAdKIDACKNMrk32MIKJchQBqBAUBRqpj8ewwB5TIESEMyAChClZN/jyGgXIYAaQgGADWtjsm/xxBQLkOANCADgJpU5+TfYwgolyFAGoABQE1pYvLvMQSUyxAg9ckA0D3LgPeR18/2LTQ3+ffsCHwLWNLwuIpnCJD6kNMkodFtDZwLvA34HDA/th0gffP/QNDYOwPfxSsBJTIESLMwAHTH1qTL3tuO/+flwH8QGwKavOw/HW8HlMsQIM3AANANkyf/nsgQkMPk32MIKJchQJqGAaD9ppv8eyJCQE6Tf48hoFyGAGkKBoB2m23y72kyBOQ4+fcYAsplCJAmMQC01zLgfGaf/HuWA5+k3p95zpN/z47AKdFNKIQhQJogh1XiGlxvtf9WA/57x5I+XI4BHqq4pzZM/gDXAm+KbqIAzwY2jW5iGr8G9oluYhYLgLOAFwHfCO5FatRyYCygTm/i4Ea0NXA1ox9nleHv+BH7aapW0P8Vk654B/Hn3Rq+HsArAaqJtwDaZWv6u+c/myrXBLTpm/8hwDXRjUgD8HaAamMAaI+qJv+eKkKAk79UP0OAamEAaIeqJ/+eUUKAk7/UHEOAKmcAyF9dk3/PMCHAyV9qniFAlTIA5K3uyb9nkBDg5C/FMQSoMgaAfDU1+ff0EwKc/KV4hgBVwgCQp6Yn/56ZQoCTv5QPQ4BGZgDIT9Tk3zNVCHDyl/KzAPi36CbUXu4EmJfoyb9n+fhfjyHtmufkL+VpXnQDai8DQD62Bb7D4Nv71mU5sB35b5kKaWfEQ4DrohuRpLbwFkAetga+RT6Tf08bJv9rgcNx8pekgRgA4uVy2b+NvOwvSUMyAMR7D07+w7gaOBgnf0kaigEg3nGky//qn5f9JWlEBoB49wMvwBDQLy/7S1IFDAB5MAT0x8lfkipiAMiHIWBmTv6SVCEDQF4MAVNz8pekihkA8mMIeCQnf0mqgQEgT4aAxMlfkmpiAMhX6SHAyV+SamQAyFupIcDJX5JqZgDIX2khwMlfkhpgAGiHUkKAk78kNcQA0B5dDwFO/pLUIANAu3Q1BDj5S1LDDADt07UQ4OQvSQEMAO3UlRDg5C9JQeZHN6Ch9ULAl4HDgnsZhpN/M74O3BndRAE2BE6KbkLqguXAWECd3sTBVWw94FxiztewtQLYtoZzIUVZQsyfpZuaODh1k7cA2q9ttwP85i9JGTAAdENbQoCTvyRlwgDQHbmHACd/ScqIAaBbcg0BTv6SlBkDQPfkFgKc/CUpQwaAbsolBDj5S1KmDADdFR0CnPwlKWMGgG6LCgFO/pKUOQNA9zUdApz8JakFDABlaCoEOPlLUksYAMpRdwhw8pekFjEAlKWuEODkL0ktYwAoT9UhwMlfklrIAFCmqkKAk78ktZQBoFyjhgAnf0lqMQNA2YYNAU7+ktRyBgANGgKc/CWpAwwAgv5DgJO/JHWEAUA9s4UAJ39J6hADgCaaLgQ4+UtSxxgANNnkEODkL0kdZADQVHoh4N+Bg3Hyl6TOmR/dgLJ1P/An0U1IkurhFQBJkgpkAJAkqUAGAEmSCmQAkCSpQAYASZIKZACQJKlABgBJkgpkAJAkqUAGAEmSCmQAkCSpQAYASZIKZACQJKlABgBJkgpkAJAkqUAGAEmSCmQAkCSpQAYASZIKZACQJKlABgBJkgpkAJAkqUAGAEmSCmQAkCSpQAYASZIKZACQJKlABgBJkgpkAJAkqUAGAEmSCmQAkCSpQAYASZIKZACQJKlABgBJkgpkAJAkqUAGAEmSCmQAkCSpQAYASZIKND+6AQEpiB0c3YTUAbcCl0c3IbWBASAPC4DzopuQOuDzwPLoJqQ28BaAJEkFMgBIklQgA4AkSQUyAEiSVCADgCRJBTIASJJUIAOAJEkFMgBIklQgA4AkSQUyAEiSVCADgCRJBTIASJJUIAOAJEkFMgBIklQgA4AkSQUyAEiSVCADgCRJBTIASJJUIAOAJEkFMgBIklQgA4AkSQUyAEiSVCADgCRJBTIASJJUIAOAJEkFMgBIklQgA4AkSQUyAEiSVKD50Q0IgLXAd6ObkDrg8ugGpLYwAORhDfD06CYkSeXwFoAkSQUyAEiSVCADgCRJBTIASJJUIAOAJEkFMgBIklQgA4AkSQUyAEiSVCADgCRJBTIASJJUIAOAJEkFMgBIklQgA4AkSQUyAEiSVCADgCRJBTIASJJUIAOAJEkFMgBIklQgA4AkSQUyAEiSVCADgCRJBTIASJJUIAOAJEkFMgBIklQgA4AkSQUyAEiSVCADgCRJBTIASJJUIAOAJEkFmh/dgABYCKyKbkLqgDOAV0Q3IbWBASAPc8ZL0mi8qin1yT8skiQVyAAgSVKBDACSJBXIACBJUoEMAJIkFcgAIElSgQwAkiQVyAAgSVKBDACSJBXIACBJUoEMAJIkFcgAIElSgQwAkiQVyAAgSVKBDACSJBXIACBJUoEMAJIkFcgAIElSgQwAkiQVyAAgSVKBDACSJBXIACBJUoEMAJIkFcgAIElSgQwAkiQVyAAgSVKBDACSJBXIACBJUoHmRzcgAFYD86KbkDpgLLoBqS0MAPlYG92ApFnNBZYBO06oHYCdgvrZHLhiUl0J/Bq4IagntYQBQJKmNo80se8N7DVeTwQ2jGxqkrmkALID8NxJ/9utwMUT6qfAiiabU94MAJKUzCNN8AcBBwKHAZuGdjSazYFnj1fPLcD5wPeBC0jBwNsmhTIASCrZMtI35+eQJv7Fse3U7o+AI8cL4DbgPOArwNfG/7MKYQCQVJJ5pIn+eaSJf5fYdsJtBhw1XmuBi4BzxuuSwL5UsOWky1JN1+lNHJykxu0NfBi4kZjPljbWNcB7MSSpYQYASaPaFTgJuJb4ybTt9XPg7cDSgX4C0hAMAJKGsZB0f/ubpEva0RNn1+qh8XN7JN5CVk0MAJIGsRPwEeAu4ifJUmoFcALpaQOpMgYASf04CDiT9M00ekIstVYDpwG7zfKzUmZ8F4CktpkHvBz4CfA90uVot9KOsxA4BriU9PTA00O7Ud8MAJLaYi5psv8l8J+klf3KxxzSo5XnkTYaOjy2Hc3GACApd3OA55O2sj2TuH331b+nkBYLXgAcGtyLpmEAkJSzZ5IeQfsyaZtetcuBwLeArwO7B/eiSQwAknK0E+nb/jeAPYJ70eieRQpypwFLgnvROAOApJxsDnwcuIw/7FevbphLWix4BfBOYFFsOzIASMrBHOBY0gK/43CTmS7bAPhH0s/6WcG9FM0AICnajsC5wL8Djw3uRc1ZRlobcCbpLYVqmAFAUpRFwD+QLve7UrxcRwK/Av4X6UqQGmIAkBRhd+BC4H8D6wT3onibAKeQrgg8PriXYhgAJDVpPumtcj/Bx/r0aM8kXRF6XXQjJTAASGrKTqQd4t4LLAjuRfnaCDgZ+DywaXAvnWYAkNSElwA/AvaNbkStcRRp74CnRDfSVQYASXVaCHwY+CLpm500iC2B75JuG7lAsGIGAEl12Z600O/N0Y2o1eaTbht9Edg4uJdOMQBIqsMzgYuAJ0U3os54MfBjYNfoRrrCACCpaq8DvkJ6tEuq0vbAD0lvh9SIDACSqrIA+CRpBbdb+aouGwBfIq0L0AgMAJKqsCnpta9/Gt2IijCPtC7gVAybQ/PE5WEB8D/RTSh7bwAuj25iCluSdnDz3mzyIHA9cA1wHXATcMeEugtYPf7P3gM8PP73C4H1xv9+fdItlMeQ3o+wGWm//G2BbYDH4Rc4gNeQzsvRwP3BvbSOASAPc4GnRTeh7OX4GN1ulLt96xrSHvaXAr8Yr18BN/CHSb0uC4CtgSeQtlXeHdgT2I7ygsHzSC+Tej4pYKlPBgBJwzoQOJtyFvvdAfyAtJvh90nbGa+e8d+ozxrgyvH60oT/fiPSxjkHAAeRNl5av/HumncA8D3gCODa4F5awwAgaRgHk1b6L45upEYPk3aiOxc4hzT5rw3taHa/B742XpA+4/cnfUs+HNiL7m6oswspBBwK/Da4l1YwAEga1DOA/wbWjW6kBg8C3yS9o/5s4M7Ydkb2EHDBeAFsRdqW+WhgP7oXBrYEziOFgCuDe9GQlgNjAXV6Ewc3hUUD9GiVWwcQ79nAKuLPRZW1ljRpvIayXj6zNfBXpDUM0T+DqusG0sun1EIGAMt6dEUHgOeQ7nlHn4eq6hbgfcCOVZ6kljoA+BRwL/E/l6rqRmDnKk9S15S2WlTScA4GvkB6VK3tfgK8gnS5+K+BK2LbycKFpD0ctgCOJz3C2HZLSbdzto5uJFcGAEmz2YP23/MfIy3mewGwD+lq35rQjvL0e9LbG7cnnasfxLYzsseTfu5LohvJkQFA0kx2In2Lautb2MZIb5HbnbR48ezYdlpjLelcHUg6bxfGtjOS7YGvkuc+GqEMAJKmswVph8rNoxsZ0jnA3sDLgF8G99Jm55L2Fngu8NPgXob1JFKgWRTdSE4MAJKmspj0gblVdCNDuJi0ZuH5wM+Ce+mSr5Jun7yCtNVx2zwV+DTde/RxaAYASZPNBT5L+tbUJneQFrDtS9oQRtUbI62f2Al4B+mpgTZZDpwY3UQuDACSJvsX4IXRTQxgLfBRYBlpAVvd+/Ar7QXxz6R3QZwT3MugTgBeGd1EDgwAkiY6jvQtui0uJ+15/2bSm/XUrOtIt1peDtwa3Eu/5pBeI3xgdCPRDACSeg4gfYNug4eAvyfdpmjzCvWuOIP0OujPRjfSp4XAWaS9AoplAJAEaaX/maTXzOZuBXAI8Lf4LH9O7gCOAY6kHe9QWEp6RLQNv/O1MABImkf65vb46Eb6cBbpW/8Fs/2DCvMF4InAd6Mb6cMBwD9FNxHFACDpH0ibveTsftK3y6OAu4N7qcIi4DGkhYtPJG1UtC2wCbBOYF9VuR44jPS7NRbcy2zeQrpqURxfByyV7Rmk/fBzdh3wUtIe/m0yF9gT2Iv02NyOpJfTLGP2SX4V8BvSewquAH4N/Ih2vef+YeDdpDUa/0EKNzmaA5wC/Jh0e0nBfBugZT26qn4b4GNJb0yLPq6Z6qvkO3FMZXvgjaR7y3dQ/fm4DvgMcCzt2qFxB+Ay4n+fZqrvkW6HKZgBwLIeXVUHgP/K4Jhmqk/QjquUG5Mm5G+S9iRo6vw8ND7mscD6tR/l6BYDXyH+92qmeldtR6++GQAs69FVZQA4LoPjma7W0o7d2vYmPTnxAPHn7G7gY+T/6tv5wMeJP1/T1YPA/rUdvfpiALCsR1dVAWA74L4MjmeqWgW8pKLjrMuBpPckNPltv99aA5xGWmuQsxOIP1fT1W9o96uvW88AYFmPrioCwBzSG/6ij2Wqug94ZgXHWJedSZfco89TP/UQ8Elgs1rORDWOIy0UjD5XU1WxjwbmwABgWY+uKgLAn2ZwHFPVStLmPjlal3RLYjXx52nQugv4C/Jd3PbHpMvu0edpcj1IusWjAAYAy3p0jRoAlpB2aIs+jsl1J/DkEY+tLoeRHg2LPkej1o9IjyLmaDl5hoCf0o5FqENzIyCpHB8hv0fqVgJHkN8z/nOBtwPfIP+Fdf3Yl3SO/zi6kSmcQboytTa6kUn2At4a3USJvAJgWY+uUa4AHJZB/5PrfuDpIxxTXTYnTfzR56euOg1Yr7KzVZ1eCIg+PxPrPmCrOg86klcApO5bh/TtPydrgBcD3wnuY7JdSd+Uc16MOKpjSOc9twWCnyK/XSnXo8MLAjt9f6NF1pDvAijl45dD/ntvIk1suRgDXkv6lp2T/YBzSDskdt0+pC16nwVcFdzLRO8HtgCOj25kgpcDJwPnRzdSitJuAUh12Zy0Ejz6UurE+ptaj3g4zyPfvRHqrN8Bu1Vw/qo0l7SVcvS5mVgXk++TFJ1jAJCq8W/Ef3hOrE+T9iLIyaG08xG/qupW8ntCYD3gh8Sfm4n1mlqPWP+fAUAa3Q6k20vRH5y9+j6woNYjHtw+pCcRos9NdF0FLB3xXFZtCXAD8eemV9eRFmx3hosApe76O/J5t/wtwFGkQJKL7Ulb+i6ObiQDy0hrMjaObmSCm0mvgc7ld2ZL0u6FqplXAKTR7E4+26yuAQ6u93AHtiFwJfHnJrc6m/xu0byR+PPSq9uADeo9XBkApNGcTfyHZa/eUvOxDuOzxJ+XXOttI5zXuuT088pxEWunGACk4e1D/Idkr75Gft8oX0/8ecm5HiS98TAnGwJXE39uxkivXt6o3sNthmsApO55e3QD427nDy8fysUTgA9EN5G5+cB/ktckdw/wStJbDqNthGsBauUVAGk4O5HPvf8X1Hysg5pD2gEv+ry0pT401Fmu14nEn5cx0gLFdes91HIZAKThnEr8h+MY6Xn/3Lya+PPSpnoIeNJQZ7o+80lv6Ys+N2PAn9V8rMUyAEiD2wJ4gPgPxtvIbzvdTUiPIkafm7bVReR3q3hP8tjf4ipavp1+bj9YScN7I3lstPMm0v3/nJxA2hZZg9mH9IUsJ5cAH45ugrR3wvOjm+girwBIg1lAHt9wv1z3gQ7hMbjb3yh1Ofl9WVyP9A08+tx8s+4DrVNuP1RJwzmS+G+4a4C/DO5hKm/F3f5GsQvwougmJrmfPH7XDiO/9yj0zQAgdcProxsgPV53ZXQTk2wEvCG6iQ44gfz2c/gv4H+Ce5hDHn/2OsVbAFL/9iD+UujNpM1acnM88eemK5Xbds4Au5I2Loo8L3cD69d9oHXwCoDUfjm8pvRdpM1acnNsdAMdckx0A1O4nPToa6SNgJcF99ApXgGQ+jOf9O078hvQFeT5ONTuxH9rnqkeBK4Ffgb8AvgdsDaDvqaru8lz85ulpDUBkeemlYsBvQIgtduzgT8K7uFE8tiidbIcv7FeCbwPOIh02Xhr0mY7ewCPJ71p7rnAJ0hPdeRkI+CF0U1M4Sbg5OAeDiX9/FQBrwBI/fk8sd98LiPfLxIriP/W3KtfAS8esP8FpD0Vcni8s1dfHPAYmrIZ6RZU5LnJ8S2KrWQAkGa3EfGXPo+u/SiHsx3xk+UY6crIXzPaLZINgE9mcCxjwB3kG/hOIvbc/KL+QyyDAUCa3bHEfuBdQ573/gFeR/xkeQ/VvhDpdcSveB8D9q7wmKqUw1bYu9V+lBXKNclJml305iwfJM97/wCHBI+/irRJTJU7I36CPJ74ODS6gWncAJwR3EP0n8lO8AqANLN1gXuJ+6ZzF3nvrncjcedmLfXun/++wGMbA86p8dhGtTuxT1JcVP8hVscrAFI7HU7s5iOnkgJIjjYhPRoW5ePU+030ncCFNf7/z2bXwLFncynw7cDxn0yLngYwAEjtFHmpcQw4JXD82UTuzX4v8Pc1j/Ew6f0GYzWPM52tgUVBY/cj8ndzDnk+KjklA4DUPnNIz4pH+S5p859cRQaAk2jm+f0fEvfmxbnADkFj9+O/iH0ddWteEWwAkNpnD2I3//lE4Nj9iAoAY8CnGxzvUw2ONVnOb8B7ADgtcPynAgsDx++bAUBqn8hV2HcBXwocvx9R9/9/Clzf4HjfBO5rcLyJlgSN269PBo69HrB/4Ph9y/UZ3tIsJr1uU/V7P3BbdBMjOjxw7P8LrA4cvx9RTyd8teHxVgHnAc9reFzI882PE11O2phnj6DxDyXdKsuaASAPi0m7hal+n6bdAWA+aR/5KGcGjt2vqMkpYie4S4kJABsEjDmozxMXAA4D/jZo7L55C0Bql32Jm+BuJ/YRq35FTU43FjImtCMARIbVfcl7nwzAKwBS2zwlcOwvke/OfxOdAZwfMO61AWNG7cUQuQdFv34LXAzsFTD2OsA+pFs02TIASO2yX+DYZweOPYiPRDfQoKiJ+IGgcQd1DjEBANKf1awDgLcApHaJCgBryPzDrFBRTzxEPX0wqK8Hjr1v4Nh9MQBI7bEE2DJo7PPJd+vfkj0haNz7g8Yd1EWkVxhHyP5RQAOA1B6Rl/+/Fji2praItNo8wp1B4w7qYdJ+CRGWkvl7AQwAUns8KXBsL//n53DiVppHLHgcVuSTK1HrD/piAJDaI+otbCuJecZdM3tV4NjXBY49qAsCx875zYkGAKlFdgsa94ekS6nKx77ASwPHb9MVgF8T93KgXYLG7YsBQGqHdYDtg8b+ftC4mtoc0lsH5wSNfwPt2k1zDLgwaOyo0N4XA4DUDjsAC4LG/lHQuJraicDBgeP/OHDsYf0waNydyXiezbYxSY8QeSnxksCx9UgvJf7FYRcHjz+MqDUs6wNbBY09KwOA1A7Lgsa9HbgpaGw90muA/yTu0n9P5KK6YUUuYt0mcOwZGQCkdojaAMhv//HWJW1vfCpxt4F6VtLONSHXAXcHje0VAEkjiQoAlwWNq/T5fCTp3fZ/HtxLz7mkbaHb6NKgcbcOGndWvgxIaoeoD5Erg8Yt1TzSGx9fCLwE2Da2nUf5SnQDI/gt8NSAcaPC+6wMAFI7RH2IXBM0bttsCnx+hH9/PWATYDviL/NPZxXwhegmRrAiaNxsbwEYAKT8LQAeEzT2iqBx22YBaWveLvsS8PvoJkZwddC4WwSNOyvXAEj5ewxxK7/btOOb6vWZ6AZGtCJo3E2Dxp2VAUDK3yZB495Oe977rnpdSloA2GZR7y8wAEgaWtTl/zZt96p6nUTaUrfNon6fF5HWeGTHACDlL+obRNQLVJSX64EzopuowCrg/qCxs7wKYACQ8rdx0Lh3Bo2rvLwbeDC6iYrcETSuAUDSUNYPGjfqw1L5+Dnw2egmKhR1VctbAJKGEvVc+MqgcZWHMeCtwNroRioUtag1y70dDABS/qI+PNq65auq8WngvOgmKvZA0LgGAElDifrwiPqwVLybgL+KbqIGUaHWACBpKOsEjduVhV8azBjwWuCu6EZqEBVqFwaNOyO3As7DSuAd0U0U4tboBoZgAFCT/ol2v/RnJlFXAKL+DM/IAJCH+4B/jm5C2Yr60PLzoTzfBv4muokaGaYn8BaAlD8XLqkJVwBHAw9HN1KjqEvxWa6nMQBI+VsdNK4BoBw3Ac+i+7s/+kTNBAYAKX8GANXpbuAIynj1s1cAJjAASPlbFTTu4qBx1Zw7gWcCl0Q30pCoHfmyvALgIh8pf1FXAKLeQqhm3Aw8A7gsupEGPTZoXK8ASBpK1IeHAaC7fg7sR1mTP8QFgCz3VDAASPmL2pM/6sNS9foCcBBwXXQjDVuEL9Z6BAOAlL9bgsY1AHTLA6TtfY8i7qU4kaKuaD0A3Bs09oxcAyDl76agcTcjfWuKWoOg6vwSOAb4WXQjgbYMGve2oHFn5RUAKX93ELOKeA6wVcC4qs79wAnA3pQ9+QNsGzRulpf/wQAgtcEYcbcBoj40NbovArsA/4dMV6E3bJugcQ0AkkZyc9C42wSNq+GdS1rh/zLKW+g3k6gw+7ugcWflGgCpHaLWAWwfNK4Gswo4E/gwXuqfTtTv8oqgcWdlAJDaISoA7B40rvqzmvQq8dPI9FnzjDwhaNxrgsadlQFAaoeoDxEDQN7uJn3r18weR3qqJUK2AcA1AFI7/Cpo3MgPTqkqkUHWACBpJFEBALwKoPaL+h1+ELghaOxZGQCkdriauEe59gsaV6rK/kHj/gZ4OGjsWRkApHZ4GLgyaOwDg8aVqvKUoHEvDRq3LwYAqT2ibgM8BT8r1F7bA0uDxjYASKpEVADYBNg5aGxpVJFXsH4ROPasDABSe0S+u/2QwLGlUTwtcGyvAEiqxA8Dx3524NjSsOYQ97t7N3B90Nh9MQBI7XE9cR/Qh5exAAAKoklEQVQoh5BeDSy1yROJu///I9KLvLJlAJDa5QdB464PPDVobGlYkVeuvh84dl/cClhqlwuBo4PGfh7wzaCxc3cP8GcB494fMGabPDdw7OwDQK6Wky6dNF2nN3Fw0gj2IebPxhhwI141VHs8nrR/RsSflQeBxfUf4mj8wyy1y8+J+9a3FDcFUnscRdwc9zPg3qCx++YtgEdaAhwe3YQ0i+uIey7/aOB7QWNLgzgycOxWXP6fE93ANJbj5XgpRzcDWwIPRTcizWBb4Cri5rgjgK8Hjd03bwFIGsQS4DnRTUizeDVxk/8q4PygsQdiAJA0qNdGNyDNYC7wqsDxv0NLns4wAEga1BHAVtFNSNOI/v38WuDYAzEASBrUPNIlVilH0Veosr/332MAkDSM44CF0U1Ik2xH2rAqyhXAlYHjD8QAIGkYS4A/jm5CmuStpCtUUT4fOPbADACShvU2/AxRPjYldvEfwJnB4w/EP7yShrUzviZY+Xgj6aVVUS4HLgscf2AGAEmj+Dvy3VBM5dgIOD64h1Zd/ge3ApY0mieT3rh2TnQjwRaSHj9r2mpatOq8Rm8h3QKI1KrL/5BvcncrYKk9LiYFgbHoRgItAW4KGPeW8bFLtjFwzfhfo1wE7Bc4/lC8BSBpVHsBL4luQsV6O7GTP8ApweMPxQAgqQrvAxZFN6HibAW8ObiHe2nh/X8wAEiqxjLgL6KbUHE+AKwX3MPpwMrgHoZiAJBUlXcBS6ObUDEOIo9bT628/A8GAEnV2QD4p+gmVIT5wL8Sv5D9Z8CPg3sYmgFAUpVeBTwzugl13tuAPaKbAN4f3cAoDACSqnYysDi6CXXWDsAJ0U0AvwPOim5iFAYASVXbBjgxuAd10xzg48C60Y0AHwQejG5iFAYASXU4nrRIS6rSG4DDopsAfg+cGt3EqAwAkuowD/gP0h7tUhV2A06KbmLcJ4B7opsYlQFAUl22AT4W3YQ6YSHwOfK49H8f8C/RTVTBACCpTq8cL2kU7wX2jG5i3EdJ72BoPQOApLp9AnhSdBNqrReRzy6T95DPbYiRGQAk1W1d0qtSo1/YovbZCfh34jf86fkgcGd0E1UxAEhqwvbk9UGu/G0I/Pf4X3NwJykAdIYBQFJTXgD8Q3QTaoX5pJfs7BTdyATvIT3+1xkGAElNeifw+ugmlL0PAc+JbmKCX5PePdAp86MbmMbNwLnRTUgdsRn5rKAG+DBwNfCN6EaUpbcBb4xuYpK30vJd/ySVaT3gGmAso/o9sHedB92wJcScx5ubOLgGvRx4mPjfz4n1lVqPWJJq9lziP0gn123AE+o86AYZAEb3QmAN8b+XE2sNsHOdBy1JTTiL+A/UyXUL3fiANQCM5jBgFfG/j5PLRauSOuFxpEvv0R+qk+taYFmNx90EA8DwnkbaXjf693By/QZYVONxS1Kj/pz4D9ap6ibafTvAADCcI4D7if/9m1xryeOtg5JUmbnAhcR/wE5VdwD71HfotTIADO755HnZfww4ucbjlqQwewKrif+QnaruBA6q79BrYwAYzJ+QHquL/n2bqm7EbaslddhfEv9BO12tBl5R36HXwgDQnznAiaRL7NG/Z1PVWtITM5LUWXNIzzdHf+DO9EF8Yl0HXwMDwOwWAKcR/7s1U3Vqr39Jms5S4FbiP3RnqlOBhXWdgAoZAGa2OfAd4n+fZqpLKGzVv2/mksp2BOlKQM6fBRcDLwVWBPcxk42BzwSMexfw6oBxB7E38EVg6+hGZrAa2A/4RXQjktSkjxH/7Wu2uhU4tK4ToNocR74LTifWG+o6AZKUs3VJ33yiP4Rnq4dIr2TN9SVm+oONgTOI/53ppz5b0zmQpFbYhvzXA/TqImCHWs6CqrA/cBXxvyf91CWkl2VJUtEOJd9nsyfXSuC15L12oTSLgH8kXamJ/v3op+4EtqvlTEhSC+W6VfB0dT7deJlQ2x0IXE7870O/9TA+7y9Jj3IK8R/Qg9T9wNuBdeo4GZrRRsDHyXdjn+nqHXWcDElqu3XI/5ntqeo3+K2uKXOBY0n7EET/3AetU2s4H5LUGZsD1xD/YT1MnQ3sWP0p0biDSXszRP+ch6mv41MkkjSrHWjnN7wxYA3p0vTjKz8r5doT+G/if7bD1iXAhpWfFUnqqCeSdpuL/vAetlYBHyJt1avh7AqcSfvu80+sazEMStLADgLuI/5DfJS6D/hXYPuKz02XHQB8gbRiPvrnN0rdhPtGSNLQjiBdVo/+MB+1HibtS39gtaenM+YBLwIuIP5nVUXdDuxe6RmSpAK9hPZs8tJPXU56fPCxVZ6kltqCdC6uIf7nUlX9HtinypMkSSV7Dd0KAWOkfQROA55FWSvEFwMvB75K+y/zT657gadWd6okSQDL6cbtgKnqNuBk0rbI86o6YRlZD3gZcBbtX9cxXd0FPKWqEyZJeqTnkr45R3/Y11krSXsKvI52ryBfRjqGM0nHFH1e66w7gH2rOW3d54s0JA3rUNJz4YujG2nAGHAZ8D3gB6RFcteGdjS1OaTH9g4cr4NJb3oswY3AM0hrO9QHA4CkUexPuoe8SXQjAW4AfgZcStpk5lLgStIbFZuwLmmy34O00n0PYC/K/FlcQ5r8r4pupE0MAJJG9UTga7jZDqTFdL8jTUgrxutW0uNot5EuUd8H3E26qrBm/D9D2qVuHmkh4gakF+1sBjxmvJYA25K+0W8LLK39aNrhIuAFwC3RjUhSibYAfkz8PWCrrPoSaWGjJCnQIuBzxE8KVhn1YdJbCSVJGZgDvId27xtv5V1rgDcgScrSUXT3OXMrrm4FDkGSlLV9geuJnzSsbtT3cOGjJLXGRsAZxE8eVrvrZGABkqTWORZvCViD192k9xVIklpsV9KGOdGTitWO+jbt3oJZkjTBItLjW9GTi5VvPQicSDdfxiRJxXshace86MnGyqsuAfZGktRp6wPvBR4ifuKxYmsN6XfBhX6SVJADSC/SiZ6ErJi6ANgFSVKRFgDvBlYRPyFZzdRtwGvxpXSSJGBH4GziJyervloDfIgyX1ssSZrFAaRLw9GTlVVtnQs8AUmSZjAHOBq4iviJyxqtfg48B0mSBrAO8DrgZuInMmuwupy0C6TP9EuShrYh8HbgJuInNmvmuhJ4JU78kqQKLSStHr+C+InOemRdDLwCmD/tT0+SpBHNBZ4PXEj8xFd6XTD+s/CRPklSow4BzgIeIH4yLKVWAqfgqn5JUgY2IS0Y/DnxE2RX6yfj53iDPn8mkiQ16gDSN9R7iJ802163Ah8F9hzoJyBJUqDFpBXpXwDuJX4ybUvdQQpQz8DV/JKklluXtFjtk6RvtdGTbG51A3AqcARp/wV1mCs2JZVqHnAg8ELgcNJitrmhHTXvQeAHwNfH6xJSEFABDACSlGxCCgQHA08F9qZ734JXkxbxXQB8HziftEZCBTIASNLU1gf2Bw4C9gB2B5bRnvvhD5E2S7oU+Clpwv8p6VFJyQAgSQNYF9iFdLtgN1Io2AXYgrirBSuBFcA1pAn/MtKk/0uc7DUDA4AkjW4OsDmwlBQGen993HgtAjYirTHYePyf32T8rxuP/3/cAzxM+ua+csJ/dxtwO2lVfq9uJk34K8b/N2lg/w/NybXGaofJVgAAAABJRU5ErkJggg==;rotation=0;" parent="120" vertex="1">
                    <mxGeometry x="434.33478260869566" y="11" width="28" height="28" as="geometry"/>
                </mxCell>
                <mxCell id="123" value="" style="shape=image;verticalLabelPosition=bottom;labelBackgroundColor=default;verticalAlign=top;aspect=fixed;imageAspect=0;image=data:image/png,iVBORw0KGgoAAAANSUhEUgAAAgAAAAIACAYAAAD0eNT6AAAABHNCSVQICAgIfAhkiAAAAAlwSFlzAAAOxAAADsQBlSsOGwAAABl0RVh0U29mdHdhcmUAd3d3Lmlua3NjYXBlLm9yZ5vuPBoAABRjSURBVHic7d1HtKVVmQbgFy1UFAqVYLcChQlp1FaCOYCh24QJzAojZerQqUOnDGlntBEwa7epbTGjYmoxB0TbAKgUKGbtwaWwxaLurbv3Pfs/+3uetb61mNV/9jnn/9/1fndxEqCiuyS5KMnFSe42+FoAgBU4OclXkvzllvl6kocOvSIAYEedl+RX+evDf9/cnORVA68LANgBd0lyYf7+wX/bsRIAgEk8KMmXs/nD30oAACZxXpKbsvWHv5UAAKyxrVb+VgIAMImDrfy3shJ4yEpfAQBwUF6R7VX+W1kJvHKFrwMA2IJelb+VAACsid6V/2bztVgJAMBQO1X5WwkAwAKtqvLfykrgrjv8WgGAJCcl+VLGP/ytBABgRc5NckPGP/RvOzclefkOvm4AKGkplb+VAACsyNIq/83mqiQP3pGTAIAizskyK/+trARetgPnAQBTW5fKf7OxEgCALTopyRcz/uHda6wEAGAT5yT5ZcY/tHvPjbESAIC/c+fMUflvNlYCAHCLB2auyn+zuSrJKV1ODgDW1PMzZ+W/2dyY5KUdzg8A1kqVyn+zsRIAoIwTk1yR8Q/fpcwXsrEGAYBpVa38NxsrAQCmpPLf2lgJADCNPUk+k/EP13WZLyR5wLZOGgAW4nlR+W9nbkzykm2cNwAMpfLvMxcnOewgzx4AhtgTlX/PsRIAYPGel+QXGf/QnG2sBABYJJX/asZKAIDF2JPk0xn/cKwyV8ZKAIDBVP5jZm+SF2/h/QGArg5N8rokf874h2HluSgb6xcA2HH3S/K5jH/4tc43bpnR19E6n7vlPQGAHfPczFH5X5bkyCSHJ3nDAq6ndawEANgRuzJH5f+bJK/ez+s7P8mvF3B9rWMlAEA3J2SOv/L/ZpKHHeB1npLkqwu4zta5Msn9D/A6AWBTs1T+b8tG5b+Zw5O8cQHX2zp7k7xoC68XAP7G7JX/ZmZaCdxpG68fgIJOSPKpjH94tc63kjy84RxOSXLVAl5H63w+VgIAbOI5SX6e8Q+t1nlbkrt3OI8jkrxpAa+ndfYmeWGH8wBgMrNU/r/N9ir/zVgJADAdlf/WzLQS8D8OAihulsr/7elT+W/GSgCAtabyb2MlAMDaOT7JJzP+4dM630/yyM5nczBOzcbaYfQ5tI7fEgAo4NlR+fd0RJI3Z/x5tM7eJC/ofDYALMCuJK9N8qeMf9i0zKjKfzPnJ7k548+nZf6c5MJYCQBMY5bK/+okj+p7NF2dmuTbGX9OrWMlADCBWSr/d2QZlf9mZlkJ3BArAYC1pPIfy0oAgJU7PsknMv4B0jpXZ9mV/2ZmWgnct/PZANDZ2Zmn8r9H57MZwUoAgB2l8l82KwEAujsu81T+j+57NItyWuZYCXw2VgIAw52d5PqMfyi0zjszR+W/md1J3pLx5906NyQ5t/PZALAFs1T+v0/ymiSHdD2d5bsgG+uO0effMlYCACs2S+X/g8xd+W/mtCTfyfj3oXWsBABW4KlJfprxN/3WqVL5b2aWlcD1SZ7V+WwAyDyV/x9Ss/LfzEwrgUM7nw1AWccl+XjG3+Bbp3rlvxkrAQBu9ZTMUfm/Kyr/rdid5K0Z/361zvVJntn5bABKUPnXdkGS32X8+9cyVgIAB2mmyv8xnc+mktMzx0rgiiQn9j0agPnMVPnfs/PZVLQ7ySUZ/362znWxEgDYL5U/B2IlADCh+yT5WMbfoFtH5b+zTk/y3Yx/n1vHSgAgG5X/TzL+ptw6Kv/VsBIAWHN3zDyV/2uj8l+lQ7Lxk8lWAgBr5l5JPpTxN+DWuSbJYzufDVt3RuZYCVyejTUYwNSenDkq/3dH5b8ERya5NOM/D61zXZJndD4bgEWYrfK/Q8/DoYmVAMBCHRuVPzvPSgBgQVT+rJKVAMBgKn9GsRIAGOTYJB/M+Bto61yT5HGdz4bVOSPJ9zL+c9Q6lye5d+ezAejuSUl+nPE3zdZ5T5KjOp8Nq3dkkssy/vPUOtcmeXrnswHoYl/l/8eMv1m2jMp/PlYCADtklsr/h1H5z+wRmWMl8NFYCQALoPJnnVgJADS6QzZ+9lblz7qZaSXwumys3wBW4tgkH8j4G2DrqPxrsxIAOAhnZY7K/0PZ+FEiajsqyXsz/vPYOtcmeVrnswFIslGbqvyZ0b6VwO8z/vPZMlYCQHfHZJ7K//Gdz4Z5PDLJ9zP+c9o6/x0rAaCDszJH5f/hqPzZ3FFJ3pfxn9fWsRIAtk3lT1VWAkBZxyR5f8bfwFpH5U+LmVYC/9j5bIAJnRWVP+xzdOZZCfxr57MBJqHyh/2zEgCmNUvl/6MkT+h8NrCPlQAwlTOT/G/G35Ra57+S/EPns4HbOjrJf2T85711fhYrAShrlsr/j1H5s1qzrAT+FCsBKOeYJP+Z8Teg1vlpkqd2PhvYqidmY+00+nvQOh+JlQCUcGZU/tDLTCuBf+l8NsBCzFJbqvxZmtm+W1YCMJFZKv+fReXPclkJAIvyxMxR+X8kKn+W7+jME7atBGBNzVZLqvxZF757wDD+MAnGm6V98we3sCbsIWE5/P0NsONmqx39JTKzmO27aSUAC6Lyh+U7M1YCQEcqf1gfs6wE/F84YaBZakU/UUo1focD2Lajk7wv428AreMXyajszMyxEvhwrARgJfwmOczjmCTvz/jvY+v8KMkTOp8NcAuVP8xplpXAH2IlAN3NUvlfG5U/3J6zkvw447+nrfPhJPfqezRQk8of6phlJfDDJI/vfDZQhsofarISgMKOyjyV/9M6nw1UcVasBKCURyT5XsZ/aVvno0nu3fdooJxjknwg47/PrWMlAAeg8gf2x0oAJnZUkvdm/Be0dVT+sHOelDlWAh+KlQAkUfkDW3ds5lkJPK7z2cDa2Ff5/y7jv4wt8+ckFybZ1fd4gNtxx2xU6VYCsIaOTHJZxn8BW+faJE/vfDbA1syyEnhPNtagMD2VP9DLsUk+mPH3g9axEmBqs1X+h/Y9HmCb9q0E/pTx94eWsRJgSkcmuTTjv2Ctc11U/rBUT0ryk4y/T7TOe5Lcs/PZwBBnZI7K//Ko/GHpZlkJXBMrAdaYyh8YwUoABpqp8n9G57MBVuPJmWMl8O5YCbAmzkjy3Yz/0rTO5Unu0/lsgNU6Nhv/573R95PWuSbJYzufDXSj8geWyEoAdtDuqPyBZbMSgM5mqfw/FpU/zO5esRKALi6Iyh9YLzOtBF6TjfUrrMzuJJdk/Begda5L8szOZwOsh6dkjpXAu2IlwIqcnjkq/yuSnNj3aIA1c59srP9G349a5wdJHtP5bOBvqPyB2eyKlQDcLpU/MLunJPlpxt+nWsdKgG5OT/KdjP9Qt47KH9jMcUk+nvH3q9axEqCZyh+oxkqA0nYneWvGf4Bb5/okz+p8NkANT80cK4F3JrlH57NhUqdljsr/s0nu2/lsgFpmWgk8uvPZMJkLkvw24z+sLaPyB3qyEmBqu5O8JeM/oK2j8gd2ipUA01H5A2zNcUk+kfH3u9axEmCqyv9Onc8GYH9mWQn8PlYCJc1S+d+Q5NzOZwOwFWdnY+04+j7YOu+IlUAZpyX5dsZ/6FpH5Q+MdnzmWAlcHSuB6Z2f5OaM/7C1jMofWJJZVgK/TfLqvkfDEhyR5M0Z/wFrnRuSvKDz2QD0cHaSn2f8fbJ1rAQmcmrmqPw/F5U/sGwzrQQe1fdoWDWVP8BqWQkwlMofYKxnZ56VwN07nw07ZKbK/36dzwZglY5P8smMv5+2ztWxEli885P8OuM/LC2j8gdmYiXAjjoiyZsy/gPSOnuTvLDz2QAswSwrgbfHSmAxTk3yrYz/ULSOyh+Y3Swrge8neWTns+EgzVD5/yXJRVH5AzXsSvK6bKw7R997W8ZKYBCVP8B6e06sBDhIpyS5KuPf9Nb5fFT+QG0nJPlUxt+PW+dbSR7e+Wy4DZU/wFysBDigI5K8MePf4NbZm+RFnc8GYAbPSfKLjL9Pt87bYiXQzSlJvprxb2rrfD7J/TufDcBMZlkJfDNWAs1U/gC1zLIS+E2sBLbl8Kj8ASp7buZZCRzZ+WymNUvlf2VU/gAtTkjy6Yy/n7fON5M8rPPZTGemyv/Onc8GoCIrgckdnuQNGf8Gtc7eJC/ufDYAzLMSuCxWArf6pyT/k/FvSutcmeQBnc8GgL/aEyuBaaj8ATgYh8ZKYK0dluT1Gf8GtI7KH2CM52WOlcC/Z2MNXoLKH4Ae9mSOlcA3kvxz57NZnPOT/CrjD7t1Ls5GiwHAWHdOcmHGPxdaZ9qVwCyV/41JXtL5bABoZyWwQCdnjsr/C1H5AyzZniSfyfjnRetMsRJQ+QOwSlYCgx2W5N8y/gBbR+UPsJ6en+SXGf8caZ2Ls0YrgZOTfCXjD611VP4A621PrARWZqbK/66dzwaA1bMS2GEzVf4v7Xw2AIw300rgbp3PZttmqvwf2PlsAFiOE5NckfHPm9b5epKH9j2ag6fyB2CdzLQSuKDz2WzJXTLHAar8AWqyEtiGWSr/q5I8uPPZALA+Hpjkixn/PGqdlawEzovKH4B5zNJo35zkVZ3PJsk8B3Rjkpd1PhsA1t85sRL4Ow9K8uUFvKjWUfkDcCAnxUrgVucluWkBL6Z1VP4AbMUsjfe2VwKzHMBNUfkDcPDOSXJDxj/HWuegVgKzVP5fi8ofgO07KcmXMv551jpfT/KQzV7sK6LyB4B9ZmnEb07yyplf4E1JXr6/FwgADc7NhCuBmSr/TSsOANimWVYCtz4vZ6j8X5+NXyQEgJ10WDaeOaOfe61zUxZwES1zuzsNANhBM/zN3PAL2O6o/AEYad1X6MMvYDuz0l8/AoDbsc5/RD/8Ag5mVP4ALNE6rgSGX8BWZ0v/IwMAGGTdVgLDL2Aro/IHYB2s00pg+AUcaHbs940BYAetw4/pDb+A25suP2cIAIMsfSUw/AL2Nyp/AGaw5JXA8Av4/6PyB2BG5yX5VcY/ZxcZAFT+AMzs5CRfyfjn7aICgMofgAoOS3JRxj93hweA3yR5ddtZAsDaOT/jVwLD/mGVPwCVDV0JHHLLf4xweJJfD/q3AWAJ7paNJmDlRgaAQwb9uwCwJEOew3cY8Y8CAGMJAABQkAAAAAUJAABQkAAAAAUJAABQkAAAAAUJAABQkAAAAAUJAABQkAAAAAUJAABQkAAAAAUJAABQkAAAAAUJAABQkAAAAAUJAABQkAAAAAUJAABQkAAAAAUJAABQkAAAAAUJAABQkAAAAAUJAABQkAAAAAUJAABQkAAAAAUJAABQkAAAAAUJAABQkAAAAAUJAABQkAAAAAUJAABQkAAAAAUJAABQkAAAAAUJAABQkAAAAAUJAABQkAAAAAUJAABQkAAAAAUJAABQkAAAAAUJAABQkAAAAAUJAABQkAAAAAUJAABQkAAAAAUJAABQkAAAAAUJAABQkAAAAAUJAABQkAAAAAUJAABQkAAAAAUJAABQkAAAAAXtGn0BlPfCJJeMvggY4EVJLh19EdSlAQCAggQAAChIAACAggQAAChIAACAggQAAChIAACAggQAAChIAACAggQAAChIAACAggQAAChIAACAggQAAChIAACAggQAAChIAACAggQAAChIAACAggQAAChIAACAggQAAChIAACAggQAAChIAACAggQAAChIAACAggQAAChIAACAggQAqro0ySHGZOOzAOUIAABQkAAAAAUJAABQkAAAAAUJAABQkAAAAAUJAABQkAAAAAUJAABQkAAAAAUJAABQkAAAAAUJAABQkAAAAAUJAABQkAAAAAUJAABQkAAAAAUJAABQkAAAAAUJAABQkAAAAAUJAABQkAAAAAUJAABQkAAAAAUJAABQkAAAAAUJAABQkAAAAAUJAABQkAAAAAUJAABQkAAAAAUJAABQkAAAAAUJAABQkAAAAAUJAABQkAAAAAUJAABQkAAAAAUJAABQkAAAAAUJAABQkAAAAAUJAABQkAAAAAUJAABQkAAAAAUJAABQkAAAAAUJAABQkAAAAAUJAABQkAAAAAUJAABQkAAAAAUJAABQkAAAAAUJAABQkAAAAAUJAABQkAAAAAUJAABQkAAAAAUJAABQkAAAAAUJAABQkAAAAAUJAABQkAAAAAUJAABQkAAAAAUJAABQkAAAAAUJAABQkAAAAAUJAABQkAAAAAUJAABQkAAAAAUJAABQkAAAAAUJAABQkAAAAAUJAABQkAAAAAUJAABQkAAAAAUJAABQkAAAAAUJAABQkAAAAAUJAABQkAAAAAUJAABQkAAAAAUJAABQkAAAAAUJAABQkAAAAAUJAABQkAAAAAUJAABQkAAAAAUJAABQkAAAAAUJAABQkAAAAAUJAABQkAAAAAUJAABQkAAAAAUJAABQkAAAAAUJAABQkAAAAAUJAABQkAAAAAUJAABQkAAAAAUJAABQkAAAAAUJAABQkAAAAAUJAABQkAAAAAUJAABQkAAAAAUJAABQkAAAAAUJAABQkAAAAAUJAABQkAAAAAUJAABQkAAAAAUJAABQkAAAAAUJAABQkAAAAAUJAABQkAAAAAUJAABQkAAAAAUJAABQkAAAAAUJAABQkAAAAAUJAABQkAAAAAUJAABQkAAAAAUJAABQkAAAAAUJAABQkAAAAAUJAABQkAAAAAUJAABQkAAAAAUJAABQkAAAAAUJAABQkAAAAAUJAABQkAAAAAUJAABQkAAAAAUJAABQkAAAAAUJAABQkAAAAAUJAABQkAAAAAUJAABQkAAAAAUJAABQ0K6B//ZfBv7bAKNdMvoCqE0DAAAFCQAAUJAAAAAFCQAAUJAAAAAFCQAAUJAAAAAFCQAAUJAAAAAFCQAAUJAAAAAFCQAAUJAAAAAFCQAAUJAAAAAFCQAAUJAAAAAFCQAAUJAAAAAFCQAAUJAAAAAFCQAAUJAAAAAFCQAAUJAAAAAFCQAAUJAAAAAFCQAAUJAAAAAF/R+v+R/sqbIfjQAAAABJRU5ErkJggg==;rotation=0;" parent="120" vertex="1">
                    <mxGeometry x="224.30434782608697" y="11" width="28" height="28" as="geometry"/>
                </mxCell>
                <mxCell id="124" value="" style="shape=image;verticalLabelPosition=bottom;labelBackgroundColor=default;verticalAlign=top;aspect=fixed;imageAspect=0;image=data:image/png,iVBORw0KGgoAAAANSUhEUgAAAgAAAAIACAYAAAD0eNT6AAAABHNCSVQICAgIfAhkiAAAAAlwSFlzAAAN1wAADdcBQiibeAAAABl0RVh0U29mdHdhcmUAd3d3Lmlua3NjYXBlLm9yZ5vuPBoAACAASURBVHic7d170G13Xd/x9y+QBCSAhICSAakQQDtQhFEbsSqB6hgxgNwqI7bc5CK2KnQshHAJJMSpiqJiwlWd4ohyqRCc2FYTsAKxWpHKiFwVySSCEMAkAich3/6x9z48OXkuez97rfX9/dbv/Zo5EwjnPOtnPCfvz7P2rUQEktSbUsppwGuAH42IK7LPI03tuOwDSNLUlvG/DHgwcFkp5a65J5Km5wCQ1JUd8V9F/zQcAeqQA0BSN3aJ/4ojQN1xAEjqwj7xX3EEqCsOAEmzt0b8VxwB6oYDQNKsbRD/FUeAuuAAkDRbh4j/iiNAs+cAkDRLW8R/xRGgWXMASJqdAeK/4gjQbDkAJM3KgPFfcQRolhwAkmZjhPivOAI0Ow4ASbMwYvxXHAGaFQeApOZNEP8VR4BmwwEgqWkTxn/FEaBZcABIalZC/FccAWqeA0BSkxLjv+IIUNMcAJKaU0H8VxwBapYDQFJTKor/iiNATXIASGpGhfFfcQSoOQ4ASU2oOP4rjgA1xQEgqXoNxH/FEaBmOAAkVa2h+K84AtQEB4CkajUY/xVHgKrnAJBUpYbjv+IIUNUcAJKqM4P4rzgCVC0HgKSqzCj+K44AVckBIKkaM4z/iiNA1XEASKrCjOO/4ghQVRwAktJ1EP8VR4Cq4QCQlKqj+K84AlQFB4CkNB3Gf8URoHQOAEkpOo7/iiNAqRwAkiZn/I9yBCiNA0DSpIz/zTgClMIBIGkyxn9PjgBNzgEgaRLG/0COAE3KASBpdMZ/bY4ATcYBIGlUxn9jjgBNwgEgaTTG/9AcARqdA0DSKIz/1hwBGpUDQNLgjP9gHAEajQNA0qAain8Ab8s+xBocARqFA0DSYBqL/7Mi4pHA87IPswZHgAbnAJA0iAbjfyFARPwsjgB1yAEgaWutxv/o31yMgLNzjrQRR4AG4wCQtJXW43/0f4y4AEeAOuIAkHRoc4n/0Z/kCFBHHACSDmVu8T/6kxcj4PnjHmkQjgBtxQEgaWNzjf/RXxTxMhwBmjkHgKSNzD3+R3+xI0Az5wCQtLZe4n/0iyxGwDnDHGlUjgBtzAEgaS29xf/oF4s4H0eAZsgBIOlAvcb/6BddjIAXDPk1R+II0NocAJL21Xv8j37xiPNwBGhGHACS9mT8j7mII0Az4gCQtCvjv8fFFiPghVNca0uOAO3LASDpZoz/AReNeCmOADXOASDpJoz/mhd3BKhxDgBJRxn/DQ+xGAEvyjzDmhwBuhkHgCTA+B9WRLwER4Aa5ACQZPy35AhQixwAUueM/zCWI+DF2edYgyNAgANA6prxH1ZEnEs7I+Ap2YdQrhIR2WeQlMD4j6eU8hfAA7LPsY+LgB8PA9A17wBIHTL+4ymlPIS64/8qjL/wDoDUHeM/nlLKccBfAPfPPsseXg08w/gLvAMgdcX4j+5JGH81wjsAUieM/7hKKScBHwG+Pvssu3gN8HTjr528AyB1wPhP4nnUGf/XYvy1C+8ASDNn/MdXSvkG4EPArbLPcozXAk8z/tqNdwCkGTP+k/lZ6ov/6zD+2od3AKSZMv7TKKWcDrwHKNln2eH1wFONv/bjHQBphoz/pF6O8VeDvAMgzYzxn04p5Qzg0uxz7HAJ8IMRcWP2QVQ/7wBIM2L8J/fk7APs8EHgh42/1uUdAGkmjP+0Sim3B64Cbp19FuBq4F9HxEezD6J2eAdAmgHjn+Lx1BH/G4DHGX9tygEgNc74p6nl43R/KiL+KPsQao8PAUgNM/45Sin3A/5f9jmAiyLimdmHUJu8AyA1yvinquG7/3cC/yn7EGqXdwCkBhn/PKWUE4ArgTsmHuMI8E0R8beJZ1DjvAMgNcb4p3sEufEHeLXx17a8AyA1xPjnK6VcAnx/4hGuA+4ZEZ9KPINmwDsAUiOMf75Syh2B70s+xi8afw3BASA1wPhX43Ry/735WeDnEq+vGXEASJUz/lX5juTrvywi/in5DJoJB4BUMeNfncwB8Eng1xKvr5lxAEiVMv51KaUcB3xb4hHOjYgvJV5fM+OrAKQKGf/6lFL+FfD+pMt/CTglIq5Lur5myDsAUmWMf7Uyb///kfHX0BwAUkWMf9UyB8DbE6+tmXIASJUw/tXLGgABvCPp2poxB4BUAeNft1LKycC9ky7/fyPiyqRra8YcAFIy49+E0xOv7e1/jcIBICUy/s24b+K1HQAahQNASmL8m5L16X9/HxFZLz3UzDkApATGvzmnJF330qTrqgMOAGlixr9JWXcAPpl0XXXAASBNyPg3K2sA+Ox/jcYBIE3E+DfNAaDZcQBIEzD+zct6DsBVSddVBxwA0siMf9tKKQU4Oeny3gHQaBwA0oiM/yzcHrhFwnVvBD6VcF11wgEgjcT4z0bW4///GBE3JF1bHXAASCMw/rOS9fi/t/81KgeANDDjPzu3Tbru55Ouq044AKQBGf9Zui7pundOuq464QCQBmL8Z+uapOuemnRddcIBIA3A+M/atUnXvUMp5VZJ11YHHADSloz/7GXdAQC4S+K1NXMOAGkLxr8LmQPAhwE0GgeAdEjGvw8RcQQ4knR5B4BG4wCQDsH4dyfreQAOAI3GASBtyPh36Yqk6/ocAI3GASBtwPh368NJ171n0nXVAQeAtCbj37WsAfC9pZTjk66tmXMASGsw/t37SNJ1bw98V9K1NXMOAOkAxl/k3QEAeHjitTVjDgBpH8ZfSw4AzY4DQNqD8ddKRHwG+FzS5b+xlHLfpGtrxhwA0i6Mv3bxgcRrexdAg3MASMcw/trDHyde2wGgwTkApB2Mv/bxrsRrf3sp5esSr68ZcgBIS8ZfB3gPcH3StQvwH5OurZkqEZF9Bimd8dc6SinvAb4j6fLXAfeMiE8lXV8z4x0Adc/4awPvTLz2bYAXJF5fM+MAUNeMvzaU+TwAgKeVUu6RfAbNhANA3TL+OoR3A19OvP7xwEsTrz8bZeFFpZTa//yPxgGgLhl/HUZEXAtcnHyMx5dS7p98hqaVUgrwa8CLgct6HQEOAHXH+GtLb0i+fgFelnyGZi3jfyHwjOXfOo1OR4CvAlBXjL+2VUo5AbgKODn5KN8TEZlvTtScZfwvAp62y//8UeCMiLhi2lPl8Q6AumH8NYSIOAL8TvY5gDf45kDrOyD+0OGdAAeAumD8NbDshwEA7ga8tZRyYvZBareM/6vYO/4rXY0AB4Bmz/hraBHxHuDj2ecAHsTiu1rtYRn/VwM/tuYv6WYEOAA0a8ZfI/qN7AMsPbGU8pzsQ9RoR/yfuuEv7WIE+CRAzZbx15hKKXcEPsHiHfqy3Qj8YERckn2QWizj/xrgKVt8mVk/MdA7AJol46+xRcRnWXx3WYPjgDeWUr45+yA1WMb/tWwXf5j5nQDvAGh2jL+msgzDx4ATss+y9FHg9OU46VIp5TgW3/k/ecAvO8s7Ad4B0KwYf01pGYQaXhGwchpwea93AkoptwPewbDxh5neCfAOgGbD+CtDKeXewAep6xuqfwJ+uKfnBCz//L8dGHP8zOpOQE2/YaVDM/7KEhEfBt6afY5j3A54Ry+vDiilPBT4U8aNP8zsToB3ANQ8469spZR/CbwfuGX2WXbxG8AzIiLzUwxHU0p5FvBLTPvPfhZ3ArwDoKYZf9UgIv4aeEX2OfbwRODSub1tcCnl+FLKhcCvMv3wmsWdAO8AqFnGXzUppdwW+Bvg1Oyz7OGTwBPm8AFCpZRvBF4PPDj5KE3fCfAOgJpk/FWbiLgGqPkx97sB7yqlXFxKuV/2YQ6jlHKnUsorWAytBycfBxq/E+AdADXH+KtmpZRLgTOyz3GAG1m8fPGFEfGJ7MMcpJRyEotx9RzgtsnH2U2TdwIcAGqK8Vftlk8I/Evg+OyzrOHLwIXA+RHxmezDHKuUcgLwdOAc4M7JxzlIcyPAhwDUDOOvFiyfEPjz2edY04nATwEfK6W8oJRycvaBAEopJ5ZSfoTF+yv8MvXHHxp8OMA7AGqC8R9eKeVfAM8HfmKuLxHLUkq5JfC/gdOzz7KhrwDvBi4GLo6ID0114VLKnYGHAWcB3wucNNW1B9bMnQAHgKpn/Ie3jP87gbsDfwA80hEwrOU/4/cBX5t7kq18hOUYAP4kIm4Y8osvn4x41vLHtzOfu9JNjAAHgKpm/Id3TPxXHAEjKKU8CnhL9jkG8nngD1l8+NFVwJU7flwVEV869hcs74R8HYuXRt5l+ddTWbwi4Qxu+ntwbqofAQ4AVcv4D2+P+K84AkZQSvlV4FnZ55jA51iMgU+zuOtxKnAn5vNd/WFUPQIcAKqS8R/eAfFfuQT4IUfAcEopJwKXA9+SfRalqHYE9LzMVCnjP7w14w9wJvDfl9HSAJZj6nHA1dlnUYpqXx3gAFBVjP/wNoj/iiNgYBHxERbPcP/n7LMoRZUjwAGgahj/4R0i/itnAm91BAwnIi4HHgNcn30WpahuBDgAVAXjP7wt4r/yAzgCBhURlwBPYvH7SP2pagQ4AJTO+A9vgPivOAIGFhG/Bfx09jmUppoR4ABQKuM/vAHjv+IIGFhEvAI4P/scSlPFCHAAKI3xH94I8V/5AeAtyw9n0QAi4hwcAT1LHwG+D4BSGP/hjRj/nX4feFREHBnxGl0ppfwk8ItAyT6LUqS9T4ADQJMz/sObKP4rjoCBLT/57tdp4yOENbyUEeAA0KSM//Amjv/KO4BHOwKGU0o5E3gz8DXZZ1GKyUeAA0CTMf7DS4r/iiNgYKWU01ncYTk5+yxKMekI8EmAmoTxH15y/AF+EJ8YOKjlmwWdDvxl9lmUYtInBjoANDrjP7wK4r/iCBjY8m2DTwdemX0WpZhsBPgQgEZl/IdXUfx3uhh4jA8HDKuU8ijgdSw+Xld9Gf3hAAeARmP8h1dp/FccASNY/v/8t1ncFVBfRh0BPgSgURj/4VUef4CzgDf7cMCwIuLvgO8CLsAPEhrS+7IPsIZRHw5wAGhwxn80P0298V85i8WH3WhAEXFDRJwN3B+4NPs8jXs/8NCIeCDw4uSzrGO0EeAA0KCM/6iew+J14jW7EHh19iHmKiI+GBEPBf4dMPk7xzXuH4CnAg+MiEsBIuJcOh4BPgdAgzH+4yul3BJ4I/Do7LPs4kIW/1z9l8oESim3AV4APBvfQXA/XwJeDlwQEdfu9hNKKS8Ezp30VIcz6HMCHAAahPGfTqUjwPgnKaXch0W8HgPcIvk4NQkWf06eGxF/f9BP7nEEOAC0NeM/vcpGgPGvwPLP4c8A/wHo/YmY7wWevXxjpbX1NgIcANqK8c+zHAG/Azwq8RjGvzKllFNZPF/k6cBtko8zpS8CbwFeHxGXHfaLlFJeALxksFONZ+sR4ADQoRn/fMkjwPhXrJRyMvAs4InAPXJPM6o/Z/FmSb8dEV8Y4gv2MgIcADoU41+PpBFg/BtSSnkQ8AQWrx6YwwcNfRZ4A/C6iPirMS7QwwhwAGhjxr8+pZTjWYyAH5rgcsa/Ucs3aTqTxRg4Czgx90QbuRH4n8DrgbdN8Y6TpZRzgJeOfZ0BHGoEOAC0EeNfr4lGgPGfiVLKScB3At8DPBj4Vup6OeE1wJ+xeELfe4HLI+KzUx9iziPAAaC1Gf/6jTwCjP+MLd9X4EEsBsF3A/cF7jDhET7MV2P/XuADEXHjhNff01xHgANAazH+7RhpBBj/DpVSTgHuvfxxrx3/+a7ASaz3csOvAFcDn2Hx2P3qx+q/f4DFd/dXD33+IZVSng+cl32ONaw9AhwAOpDxb89yBPwu8MgBvpzx166Wzym47fLHScu/3obF7ftV4L8wl987cxsBDgDty/i3a6ARYPylHUopZwPnZ59jDQeOAD8MSHsy/m2LiOuBxwG/d8gvYfylY0TEy4DnZ59jDQd+gJADQLsy/vOwYwS8bcNfavylPcxlBDgAdDPGf16WI+CxrD8CjL90gOUIODv7HGvYcwQ4AHQTxn+eNhgBxl9aU0RcQMMjwAGgo4z/vK0xAoy/tKGWR4ADQIDx78WOEfD2Y/4n4y8d0nIEPC/7HGu4yQjwZYAy/h1avkTwzcDDMf7SIEopzwUuyD7HGj4KnOEA6Jzx79fyTVyeCLym9viXUm4NfGWKD4CRtlFK+T3gEdnnWMM7HQAdM/5qQSnla4CLgWuBxzoCVKtSyjOBVwIl+ywHuAI4w+cAdMr4qwU74v8QFg9XvGl550KqSmvxj4iPOgA6ZPzVgmPiv+IIUHVajD/4KoDuGH+1YI/4rzgCVI1W4w8OgK4Yf7XggPivOAKUruX4gwOgG8ZfLVgz/iuOAKVpPf7gAOiC8VcLNoz/iiNAk5tD/MEBMHvGXy04ZPxXHAGazFziDw6AWTP+asGW8V9xBGh0c4o/OABmy/irBQPFf8URoNHMLf7gAJgl468WDBz/FUeABjfH+IMDYHaMv1owUvxXHAEazFzjDw6AWTH+asHI8V9xBGhrc44/OABmw/irBRPFf8URoEObe/zBATALxl8tmDj+K44AbayH+IMDoHnGXy1Iiv+KI0Br6yX+4ABomvFXC5Ljv+II0IF6ij84AJpl/NWCSuK/4gjQnnqLPzgAmmT81YLK4r/iCNDN9Bh/cAA0x/irBZXGf8URoKN6jT84AJpi/NWCUsqtqTf+K44AdR1/cAA0w/irIV8Brs0+xBpOAm6RfQjl6D3+4ABogvFXSyLiCPBY4O3ZZ9nHpcBZEfHF7INoesZ/wQFQOeOvFlU+Albx/+fsg2h6xv+rHAAVM/5qWaUjwPh3zPjflAOgUsZfc1DZCDD+HTP+N+cAqJDx15xUMgKMf8eM/+4cAJUx/pqj5BFg/Dtm/PfmAKiI8decJY0A498x478/B0AljL96MPEIMP4dM/4HcwBUwPirJxONAOPfMeO/HgdAMuOvHo08Aox/x4z/+hwAiYy/ejbSCDD+HTP+m3EAJDH+0uAjwPh3zPhvzgGQwPhLXzXQCDD+HTP+h+MAmJjxl25uyxFg/Dtm/A/PATAh4y/t7ZAjwPh3zPhvxwEwEeMvHWzDEWD8O2b8t+cAmIDxl9a35ggw/h0z/sNwAIzM+EubO2AEGP+OGf/hOABGZPylw9tjBBj/jhn/YZWIyD7DLBl/aRillBOANwEnYfy7ZfyH5wAYgfGXhrUcAbeIiC9mn2U/pZQCPA349eUdDA3A+I/DhwAGZvyl4UXEkUbi/0rgIuBNy9GiLRn/8TgABmT8pT7tiP8zl3/r4TgCtmb8x+UAGIjxl/q0S/xXHAFbMP7jcwAMwPhLfdon/iuOgEMw/tNwAGzJ+Et9WiP+K46ADRj/6TgAtmD8pT5tEP8VR8AajP+0HACHZPylPh0i/iuOgH0Y/+k5AA7B+Et92iL+K46AXRj/HA6ADRl/qU8DxH/FEbCD8c/jANiA8Zf6NGD8VxwBGP9sDoA1GX+pTyPEf6XrEWD88zkA1mD8pT6NGP+VLkeA8a+DA+AAxl/q0wTxX+lqBBj/ejgA9mH8pT5NGP+VLkaA8a+LA2APxl/qU0L8V2Y9Aox/fRwAuzD+Up8S478yyxFg/OvkADiG8Zf6VEH8V2Y1Aox/vRwAOxh/qU8VxX9lFiPA+NfNAbBk/KU+VRj/laZHgPGvnwMA4y/1quL4rzQ5Aox/G7ofAMZf6trTqDf+Kw8HfiX7EOsy/u0oEZF9hjTGX+rb8jvrN7GIbK2aCZXxb0u3dwCMv6SIOAI8Fnh79ln20EyojH97uhwAxl/SSsUjoJlQGf82dTcAjL+kY1U4ApoJlfFvV1cDwPhL2ktFI6CZUBn/tnUzAIy/pINUMAKaCZXxb18XA8D4S1pX4ghoJlTGfx5mPwCMv6RNJYyAZkJl/Odj1gPA+Es6rAlHQDOhMv7zMtsBYPwlbWuCEdBMqIz//MxyABh/SUMZcQQ0EyrjP0+zGwDGX9LQRhgBzYTK+M/XrAaA8Zc0lgFHQDOhMv7zNpsBYPwljW2AEdBMqIz//M1iABh/SVPZYgQ0Eyrj34fmB4DxlzS1Q4yAZkJl/PvR9AAw/pKybDACmgmV8e9LswPA+EvKtsYIaCZUxr8/TQ4A4y+pFvuMgGZCZfz71NwAMP6SarPLCGgmVMa/XyUiss+wNuMvqWallBOAXwF+roVQGf++NTMAjL8kDcf4q4mHAIy/JA3H+AsaGADGX5KGY/y1UvUAMP6SNBzjr52qHQDGX5KGY/x1rCoHgPGXpOEYf+2mugFg/CVpOMZfe6lqABh/SRqO8dd+qhkAxl+ShmP8dZAqBoDxl6ThGH+tI30AGH9JGo7x17pSB4Dxl6ThGH9tIm0AGH9JGo7x16ZSBoDxl6ThGH8dxuQDwPhL0nCMvw5r0gFg/CVpOMZf25hsABh/SRqO8de2JhkAxl+ShmP8NYTRB4Dxl6ThGH8NZdQBYPwlaTjGX0MabQAYf0kajvHX0EYZAMZfkoZj/DWGwQeA8Zek4Rh/jWXQAWD8JWk4xl9jGmwAGH9JGo7x19gGGQDGX5KGY/w1ha0HgPGXpOEYf01lqwFg/CVpOMZfUzr0ADD+kjQc46+pHWoAGH9JGo7xV4aNB4Dxl6ThGH9l2WgAGH9JGo7xV6a1B4Dxl6ThGH9lW2sAGH9JGo7xVw0OHADGX5KGY/xVi30HgPGXpOEYf9VkzwFg/CVpOMZftdl1ABh/SRqO8VeNbjYAjL8kDcf4q1Y3GQDGX5KGY/xVs6MDwPhL0nCMv2p3HBh/SRqS8VcLCmD8JWkgxl+tKCzi/+Dkc6zjbRHxyOxDSNJejL9achzwo0ALvwkeUUp5bvYhJGk3xl+tOS4irgDOoI0RcIEjQFJtjL9adBxAgyPgedmHkCQw/mrX0ZcBNjYCXuYIkJTN+KtlN3kjIEeAJK3H+Kt1N3sr4AZHwNnZh5DUF+OvOdj1w4AaGwHnOwIkTcX4ay72/DhgR4Ak3ZTx15yUiNj/J5RyVxZvFnTaJCfazjkRcX72IYZQSinA7YE7AqcAtwWuA64Brl3+9ZqIOJJ2SKkjxl9zc+AAAEfA0EopJwOnA/flq4G/444fpwAnA7dY48sdYTEIrgA+vPzxkdV/jojPDH1+qTfGX3O01gCA5kbACyLivOxDAJRSjmMR+u/Y8ePeEx7hc8AHgD8G3gW8JyKum/D6UtOMv+Zq7QEAjoB1lFLuyOK7+1Xsv43F7ftaXA/8OfBOFoPg3RFxbeqJpEoZf83ZRgMAHAG7KaWcADwCeDLwfezz5MoKfRm4GHgDcInPKZAWjL/mbuMBAM2NgBdGxEvH+MKllPsBTwGewOKx+9ZdDfwO8IaIeE/2YaQsxl89ONQAgH5HQCnl9sDjWYT/W4f4mpX6OPAbwCsj4urks0iTMf7qxaEHAPQ1AkopZ7C4xf9o4NaDnap+1wGvAn4hIq7MPow0JuOvnmw1AKC5EfCiiHjJJr+glHI68HIWT+jr2RHgN4H/6r90NEfGX73ZegDAPEdAKeUbgJ8Ffpj6/4Uwpa8Ab2bxz/FD2YeRhmD81aNBBgDMZwSUUk4Cngc8G7jVpKdqy/Us7oy81PcVUMuMv3o12ACA5kbAiyPi3NV/Wb5hz5OA84CvTztVe64AnhMRv5t9EGlTxl89G3QAQJsjoJTyEBbfzd4/+0ANuxT4iYj4YPZBpHUYf/Vu8AEAzY2A9wEPyD7ETFwP/DyLV1zckH0YaS/GXxppAEBzI0DDuhx4fET8XfZBpGMZf2lhtLesjYgrgDMAf/P253TgfaWUR2UfRNrJ+EtfNep71jsCuva1wFtKKb9aSjkx+zCS8ZduarSHAG5yER8O6N1fAo+LiI9kH0R9Mv7SzU0yAMARIK4GHhYRl2cfRH0x/tLuJvvYWh8O6N7JwB+VUs7MPoj6YfylvU36ufWOgO59DfC2UsqPZB9E82f8pf1NOgDAESCOB/5bKeUnsw+i+TL+0sEmHwDgCBAF+KVSynnZB9H8GH9pPSkDABwBAuD5jgANyfhL65vsVQB7HsBXBwh+KiJekX0Itc34S5tJHwDgCBAB/GhE/Fb2QdQm4y9trooBAI4AcT3wiIi4JPsgaovxlw6nmgEAjgDxz8BDfbMgrcv4S4dX1QAAR4C4Gjjdtw3WQYy/tJ20VwHsxVcHdO9k4Hf9ACHtx/hL26vuDsCKdwIAuBH4R+BK4PPAnYFTgTtkHmoir4yIn8g+hOpj/KVhVDsAoJsR8AkW/zd+kkXorwSuWv71UxFxw7G/oJRyK+AuLMbA6sddgHsC/5bFR/HOwaMj4q3Zh1A9jL80nKoHAMxyBNwI/B/gYuDiiPirIb94KeWWwL8Bzlr+uNeQX39inwceEBF/l30Q5TP+0rCqHwAwixFwLfC/WET/9yPi01NduJRyH746Br4TuMVU1x7I5cB37XYnRP0w/tLwmhgA0OwI+DjwQuDNEfHl7MOUUk4GngX8Z+B2ycfZxAURcXb2IZTD+EvjaGYAQFMj4NPAecCrIuJI9mGOVUo5BXg+8EyghWfbXw98S0T8dfZBNC3jL42nqQEA1Y+Aa4BfAH4hIq7NPsxBSil3B14CPIEKXxJ6jMsi4iHZh9B0jL80ruYGAFQ5Ao4AFwHnRcQ/Zh9mU6WU+wEXAA/LPssBHh8Rb8w+hMZn/KXxNTkAoKoR8E7gyRHxt8nn2Fop5buBNwB3yz7LHq4Evikirsk+iMZj/KVp1H7bd0+VvGPgRcD3zSH+ABHxx8C3Ae/JPsseTgVelH0Ijcf4S9Np9g7AStKdgBtYfIb9Kye85mSWb8N7EfDE5KPs5gbg/j4hcH6MvzStZu8ArCTcCbga+P65xh8gIr4cEU9i8XLBG7PPc4xbAudmH0LDMv7S9Jq/A7Ay0Z2ADwIP7+kPfynlTOCN1PW+ATcC3xwRH84+iLZn/KUczd8BWJngTsAlLD6mtqs//BFxCXA6dX0643HAf8k+hLZn/KU8s7kDsDLSnYDXAz8WEbXdsx32TAAACVpJREFUDp9MKeWOLN6WN/tVFytHgHsuh58aZPylXLO5A7Aywp2A1wNP7Tn+ABHxWeDhwD9ln2XpBODZ2YfQ4Rh/Kd/s7gCsDHQn4HUsvvOf5z+kQ1g+J+Ad1DEerwPuvhwnaoTxl+pQw7/ERzHAnYDXYvxvZvmcgJ/JPsfSbYAfzz6E1mf8pXrM9g7AyiHvBLwWeJrx31sp5dep430CPh4R98w+hA5m/KW6zPYOwMoh7gS8BuO/jmdQxzsG3qOU8qDsQ2h/xl+qz+wHAGw0Al4NPN34Hywivgw8Cvhk9llYfJqhKmX8pTrN/iGAnQ54OODVwDOM/2aWHyD0ruRjXA3cJSKOJJ9DxzD+Ur26uAOwss+dgFdh/A9l+QFC70g+xsnAmcln0DGMv1S3rgYA7DoCLgKeafy3cjb5nxngwwAVMf5S/bp6CGCn5cMBTwFeYvy3V0r5TeDfJx7hy8ApEXFt4hmE8Zda0e0A0LBKKXcHPgScmHiM74+I/5F4/e4Zf6kd3T0EoHFExCeAC5OP8T3J1++a8Zfa4h0ADaaUcgrwMfI+Ovi9EeF7AiQw/lJ7vAOgwUTEZ4CfTzzCt5ZSbpN4/S4Zf6lNDgAN7ZXAV5KufTzgHYAJGX+pXQ4ADSoirgbenXgEnwcwEeMvtc0BoDFcnHjt7068djeMv9Q+B4DGkDkA7pt47S4Yf2keHAAaXER8CPhI0uXvsHw1gkZg/KX5cABoLJl3Ae6deO3ZMv7SvDgANBYHwIwYf2l+HAAay58An0+69r2SrjtLxl+aJweARhERNwB/mHR57wAMxPhL8+UA0Jg+lnRdB8AAjL80bw4AjemqpOveNem6s2H8pflzAGhMVyZd96Sk686C8Zf64ADQmLIGwAmllBOSrt004y/1wwGgMWUNAIDbJl67ScZf6osDQGPKeg4AOAA2Yvyl/jgANJqI+BLwuaTL+zyANRl/qU8OAI0t62EA7wCswfhL/XIAaGyfTrrubZKu2wzjL/XNAaCxfW3Sda9Jum4TjL8kB4DGdmrSdT+TdN3qGX9J4ADQiEoptwTulHT5zyZdt2rGX9KKA0Bj+jpyfo99BfhCwnWrZvwl7eQA0Jiybv9fHRGRdO0qGX9Jx3IAaEx3Sbquj//vYPwl7cYBoDFl3QHw8f8l4y9pLw4AjckBkMj4S9qPA0BjulvSdbsfAMZf0kEcABrTGUnX7fo5AMZf0jocABpFKeV+wN2TLt/tHQDjL2ldDgCN5azEa38g8dppjL+kTTgANJbMAXB54rVTGH9Jmyq+X4qGVkq5M3AVOQPzwxFxn4TrpjH+kg7DOwAaw8PI+7313qTrpjD+kg7LAaAxZN7+72YAGH9J23AAaFCllBOB7008QhcDwPhL2pYDQEN7DHBS0rWvoYNXABh/SUNwAGgwpZQTgJckHuHPIuLGxOuPzvhLGooDQEN6OnCPxOvP+va/8Zc0JAeABlFKOQk4J/kYsx0Axl/S0BwAGspzgDsnXv9GZvoGQMZf0hh8IyBtrZRyJ+BjwG0Tj/EHEXFm4vVHYfwljcU7ABrCOeTGH+D1ydcfnPGXNCbvAGgrpZRvBP4GOCHxGJ8FTo2II4lnGJTxlzQ27wDo0Eopx7P4zjsz/gBvMP4pjL/UMAeAtvHLwIOzDwG8LvsAQzH+kqbiANChlFKeBTwj+xzAn0fEX2UfYgjGX9KUHADaWCnlocAvZZ9jaRbf/Rt/SVPzSYDaSCnlNOBPgZOzzwJ8EbhLRHwh+yDbMP6SMngHQGsrpdwOeDt1xB/gLcZ/MsZfmhkHgNZSSjkOeCPwzdln2aHp1/4bf0mZHAA6UCmlAK8BanqnvfdGxGXZhzgs4y8pmwNA+1rG/7XAk7PPskMAz84+xGEZf0k1cABoTzu+868p/gBvjIgmP/jH+Euqha8C0K6W8X818NTssxzjS8B9IuLvsw+yKeMvqSbeAdDNVBx/gJcb/1EZf6kT3gHQTSzj/yrgx7LPsot/AO4VEddmH2QTxl9SjbwDoKOW8b+IOuMPcI7xH43xlzrjHQABN4n/07LPsof3Aw+MiBuzD7Iu4y+pZt4B0Cr+F1Jv/AGebfxHYfylTnkHoHPL+P8adXyy317eFxEPzD7Euoy/pBZ4B0AvpO74AzyglPKi7EOsw/hLaoV3ADpXSrkrcBlwWvZZ1vDiiDg3+xB7Mf6SWuIdgM5FxBXAGUALMXhxKeWF2YfYjfGX1BoHgFobAefWNgKMv6QWOQAEOAIOy/hLapUDQEc1OAJekHkA4y+pZQ4A3URjI+AlWSPA+EtqnQNAN+MI2J/xlzQHDgDtqsERcM4UFzL+kubCAaA9NTYCXjr2CDD+kubEAaB9OQIWjL+kuXEA6EANjoDnD/kFjb+kOXIAaC2NjYDzhhoBxl/SXDkAtLYGR8DZ23wB4y9pzhwA2khjI+D8w44A4y9p7hwA2tjcR4Dxl9QDB4AOpcER8Lx1fqLxl9QLB4AOrbER8LKDRoDxl9QTB4C2MpcRYPwl9cYBoK01OAKeu/NvGH9JPXIAaBCNjYALViPA+EvqVYmI7DNoRkopdwUuA07LPssa3gY8HOMvqUMOAA2usRFQO+MvaRQ+BKDBNfZwQM2Mv6TROAA0CkfA1oy/pFE5ADQaR8ChGX9Jo3MAaFSOgI0Zf0mTcABodI6AtRl/SZNxAGgSjoADGX9Jk3IAaDKOgD0Zf0mTcwBoUo6AmzH+klI4ADQ5R8BRxl9SGgeAUjgCjL+kXA4Apel4BBh/SekcAErV4Qgw/pKq4ABQuo5GgPGXVA0HgKrQwQgw/pKq4gBQNWY8Aoy/pOo4AFSVGY4A4y+pSg4AVWdGI8D4S6qWA0BVmsEIMP6SquYAULUaHgHGX1L1HACqWoMjwPhLaoIDQNVraAQYf0nNcACoCQ2MAOMvqSkOADWj4hFg/CU1xwGgplQ4Aoy/pCY5ANScikaA8ZfULAeAmlTBCDD+kprmAFCzEkeA8ZfUPAeAmpYwAoy/pFlwAKh5E44A4y9pNhwAmoUJRoDxlzQrDgDNxogjwPhLmh0HgGZlhBFg/CXNkgNAszPgCDD+kmbLAaBZGmAEGH9Js+YA0GxtMQKMv6TZcwBo1g4xAoy/pC44ADR7G4wA4y+pGw4AdWGNEWD8JXXFAaBu7DMCjL+k7jgA1JVdRoDxl9QlB4C6s2MEvBPjL6lT/x9tXDMq7fIatwAAAABJRU5ErkJggg==;rotation=0;" parent="120" vertex="1">
                    <mxGeometry x="113.17173913043479" y="11" width="28" height="28" as="geometry"/>
                </mxCell>
                <mxCell id="125" value="" style="shape=image;verticalLabelPosition=bottom;labelBackgroundColor=default;verticalAlign=top;aspect=fixed;imageAspect=0;image=data:image/png,iVBORw0KGgoAAAANSUhEUgAAAgAAAAIACAYAAAD0eNT6AAAABHNCSVQICAgIfAhkiAAAAAlwSFlzAAAN1wAADdcBQiibeAAAABl0RVh0U29mdHdhcmUAd3d3Lmlua3NjYXBlLm9yZ5vuPBoAACAASURBVHic7N1n2GVFlfbx/w1NlCBKEhQVkJyDgqCAjKKCAVEMCKZ5Z1SCwhgxYQQjKsrM6IwiDAbMjoqYQKEFhyAZGiQqqBiQILHp9X6osmnh6e4nnHNW7X3u33X1hbHr7j7P3qvO2rWrFBGYWfdIWg1YB1gJWPEBvyb6zyb67wBuq79uXeBfP/DXRP/drcD1EfHH4f5JzWwY5AmAWbskLQOsD2w4wa9VEqMt6GZgzgS/fh0Rd2cGM7OF8wTArAGSHsHERf4xwJJ5yWbkPuBaJpgcRMTvEnOZGZ4AmI1c/Va/A/AUYDdgK+5vx4+L24DzgVOBnwJnuVtgNlqeAJgNmaRZwHaUgv8U4InAcqmh2nMn8AvKZOCnwDkRMTc3klm/eQJgNmCSlgC25P6C/yTG7xv+TN0GnM79E4ILImJebiSzfvEEwGwAJG3C/QV/F+BhuYl65y/Az6gTgoi4NDmPWed5AmA2TZIeC+xff62fHGfc/Bo4ATghIq7JDmPWRZ4AmE2BpJWBfSlFf2dAuYnGXgBnUCYDJ0XELcl5zDrDEwCzxaiL+PYADgCeDSybm8gW4i7gO8DxwCleRGi2aJ4AmC2EpG0oRf/FwOrJcWxqbgK+BBwfEedlhzFrkScAZguQtDawH6Xwb5ocxwbjEkpX4MSIuCE7jFkrPAEwAyTtALwNeCawRHIcG455wPeB90fEWdlhzLJ5AmBjTdKuwNuB3ZOj2Gj9BHhfRJyWHcQsiycANpYkPZ1S+HfKzmKpZlMmAj/IDmI2ap4A2NiQJMoq/rdTtuY1+7tzgPcB3wnfFG1MeAJgvVe35n0B5Rn/5slxrG0XAe8Hvuqth63vPAGw3qrv7+8HvJVytK7ZZM0BjqS8OeD9BKyXPAGw3pG0JPAq4C3AY5PjWLddAxwF/HdE3JcdxmyQPAGwXpG0E3AssEV2FuuVC4HXRsTs7CBmg+L3na0XJK0m6XOUI2Rd/G3QtgBOl/Q5SatlhzEbBHcArNPqAr9/AT4ArJIcx8bDzcDhwGe8UNC6zBMA6yxJ21Ha/dtnZ7GxdDblscA52UHMpsOPAKxzJK0i6Vjgl7j4W57tgV9KOlaSu0/WOe4AWGfUjXxeBnwI8HNYa8kfgTcBX/BGQtYVngBYJ0janNLu3zk7i9kinEF5LHBRdhCzxfEjAGuapKUlfRg4Dxd/a9/OwHmSPixp6ewwZoviDoA1S9K6wFfwvv3WTecAL4yIq7ODmE3EHQBrkqR9KN/6Xfytq7ajdAP2yQ5iNhFPAKwpteV/DPA1YOXsPGYztDLwNUnH+JGAtcaPAKwZteV/ErBtdpaO+RNwBXAtcCtw2wK/HvjvH/ifAaxYf620wL9ecSH/+UrAY4ANgFWH/Ofqm3OBff1IwFrhCYA1QdLzgf/C3/oX5m7gSkqhn1N/XQHMiYi/ZASS9DDKKYsb1H/+/V8/DlgmI1MH3AL8c0R8LTuImScAlkrSMsBHgQOzszTkOuBU4FfcX+iv68q2s3V75kdz/8Rga2C3+p9Z8Wng3yLi7uwgNr48AbA0ktajtPy3yc6S7A+Ugv9T4KcRcVVynqGon/dT6q/dgDVyE6U7j/JIoJeft7XPEwBLIekFlJb/StlZEvwV+BnwE0rBvyQ5TwpJm1ImA7sDuwAPzU2U4lbKI4GvZgex8eMJgI1UbQ8fDRySnWXEzgD+l/It/7yutPNHpf5cbEOZEDyL8dv06ZPAof65sFHyBMBGpj7vPxEYl/eirwJOAE7wyu+pqW+E7F9/rZccZ1S+DuzndQE2Kp4A2EhIWgn4NrBrcpRhu4WyruELETE7O0wfSNqJcgjUvvT/LZHTgOdExK3ZQaz/PAGwoZO0JvADYMvsLEMyFzgFOB74TkTclZynlyQtCzwbOADYA5iVm2hoLgCeHhG/zw5i/eYJgA2VpPWBHwKPzc4yBBcCxwFfjIg/JGcZK5LWAF4CvBzYIjfNUFwDPC0ifp0dxPrLEwAbGknbAt8HVs/OMmCnA++PiFOygxhI2gN4G/Ck7CwDdhPwzIg4NzuI9ZMnADYUkv4J+CawQnaWATqFUvhPzw5iDybpSZSJwB7ZWQbodmDviPhxdhDrH08AbOAkvQj4AtCHw0+CMpH5gL+JdUPtPB0O7A0oOc4g3AO8LCK+nB3E+sUTABsoSYcAH6f7N977gC8BR0bEpdlhbOokbQK8FXgxsGRynJkK4PUR8cnsINYfngDYwEj6AOWG22X3UBb2fdDv7vdD3VPgzZQFg13vSh0ZEYdnh7B+8ATABkLSfwD/mp1jhr4FvC4irs8OYoMnaR3gE8Bzs7PM0H9GxKuzQ1j3LZEdwLqvfvPvcvG/GtgrIvZ28e+viLg+IvYG9qJ85l31r/WaM5sRdwBsRuoz/09k55imu4EPURb4efOeMVI3FToceBOwTHKc6Xqd1wTYTHgCYNNWV/t/kW4u+PsRcGBEXJkdxPJIehzwaeCp2VmmIYCX+O0Amy5PAGxa6nv+36N7i6pupJy6dlJ2EGuHpH0pp1SulZ1liu4B9vQ+ATYdXgNgU1bfs/4m3Sr+cyk3+I1c/O2B6s/ERpSfkbnJcaZiaeCb9Zo0mxJ3AGxK6t7+s+nW9r4XU45ZvTA7iLVP0haUY6s3y84yBTcBO/nsAJsKdwBs0uqpfj+kW8X/c8ATXPxtsurPyhMoPztdsTrww3qNmk2KOwA2KZJWAn5Od470/Rvw2og4PjuIdZekA4BjgYdkZ5mkC4AnR8St2UGsfZ4A2GJJWgb4AbBrcpTJuhjYNyIuyw5i3SdpY+AkuvNI4DTg6RFxd3YQa5sfAdgiSVqC8jx01+Qok/X3lr+Lvw1E/Vnq0iOBXYET67VrtlD+AbHFORrYJzvEJPyNcmLaqyLijuww1i8RcUdEvAp4GeVnrXX7UK5ds4XyIwBbKEkvoLQ+W+eWv41Mxx4J7BsRX80OYW3yBMAmJGk94Dxgpewsi3EC8Gp/67dRkrQ88B/A/tlZFuNWYJuIuCo7iLXHjwDsQeqiv5Nov/gfFREHuPjbqNVHAgcAR2VnWYyVgJPqNW32DzwBsIl8FNgmO8QiBGU737dmB7HxVn8GD6X8TLZqG8o1bfYP/AjA/oGk5wMtPzO8F3h5RHwxO4jZ30l6CXAcsFRylEV5QUR8LTuEtcMTAJtP0rqU5/4rZ2dZiL8B+0TEKdlBzB5I0h7A12l306BbKOsBrs4OYm3wIwADQNLSlOf+rRb/PwG7ufhbq+rP5m6Un9UWrUxZD9ClQ7xsiDwBsL/7KNDqiWLXATtHxNnZQcwWpf6M7kz5mW3Rtng9gFV+BGBI2gdo9dngxcAeEXFjdhCzyZK0FnAK7e4V8PyI+Hp2CMvlCcCYa/y5/5nAMyPir9lBzKZK0kOB7wM7ZmeZgNcDmCcA46w+C5wNbJedZQIXA09y8bcuq5OA02mzE3AOsFNE3JMdxHJ4DcB4ez9tFv/rKG1/F3/rtPozvAdtrgnYjnIPsDHlDsCYkrQ5pfU/KzvLA/yJsuBvTnYQs0GRtCFwBrBqdpYHmEt5FHBRdhAbPXcAxpAkAcfSXvH/G+WZv4u/9Ur9mX4m7Z0kOAs4tt4TbMx4AjCeXkZ5Vakl91I2+fGrftZL9Wd7H8rPekt2ptwTbMz4EcCYkbQKMAdYLTvLAgJ4qbf3tXFQtw3+H6Clb91/BDaMiJuzg9jouAMwft5PW8Uf4DAXfxsX9Wf9sOwcD7AaXhA4dtwBGCOStgN+SVsTv6N8qp+NI0lHAm/JzrGAecATIuKc7CA2Gp4AjAlJSwBnAdtnZ1nACfVMdbOxJOl4YP/sHAs4G9ghIuZlB7Hha+mboA3Xv9BW8b8YeHV2CLNkr6ZcC63YnnKvsDHgDsAYkLQaZeHfKtlZqr8B20fEZdlBzLJJ2pjyzbuVY4RvpiwI/GN2EBsudwDGwwdpp/gDvNbF36yo18Jrs3MsYBXKPcN6zh2AnpO0E2Uv8lZeOfp8RLwyO4RZayR9DnhFdo4qKGdxzM4OYsPjCUCPSVqSst3vFtlZqospq4zvyA5i1hpJy1Pe0mnl4KALKdsE35cdxIbDjwD67VW0U/z/Buzr4m82sXpt7Es72wVvQbmHWE+5A9BTkmYBVwCPzc5SvSwijs8OYdY6SQcAX8jOUV0DbBARc7OD2OC5A9Bf+9FO8f+8i7/Z5NRr5fPZOarHUu4l1kPuAPRQ3fTnUmDD7Cz4ub/ZlDW2HmAOsIk3B+ofdwD66QW0UfznAvu5+JtNTb1m9qNcQ9k2pNxTrGc8AeiZeq7327JzVMdExIXZIcy6qF47x2TnqN5W7y3WI34E0DOSngN8KzsHcCOwUUTclh3ErKskrQhcDqyVnQV4bkR8OzuEDY47AP3z9uwA1aEu/mYzU6+hQ7NzVK3cW2xAPAHoEUlPB7bLzgH8KCJOyg5h1gf1WvpRdg5gu3qPsZ7wI4AekXQGsFNyjLuBzSPiyuQcZr0h6XHARcAyyVFmR8TOyRlsQNwB6AlJu5Jf/AE+5OJvNlj1mvpQdg5gp3qvsR5wB6AnJP0Y2D05xtXAphFxV3IOs96RtCxwCbBucpSfRMQ/JWewAXAHoAck7UB+8Qc4xMXfbDjqtXVIdg5g93rPsY7zBKAfWnjv/1sR8b3sEGZ9Vq+xFl7zbeGeYzPkRwAdJ2lt4HpyJ3P3AI+LiOsTM5iNBUnrAFcCSyfGmAesExE3JGawGXIHoPv2I/9zPM7F32w06rV2XHKMJYCXJmewGXIHoOMkXQxsmhjhPspxoVcnZjAbK5LWpRz3vWRijEsiooXDimyasr852gxI2obc4g/wJRd/s9Gq19yXkmNsWu9B1lGeAHTbAcnjB3BkcgazcXUk5RrMlH0PshnwI4COkjQLuAFYPTHGNyJin8TxbQL11LZHUY5x3aj+WhdYGVgRWKH+c8X6f7kNuL3+8zbgFsqeDpfXX3OA34RvFs2R9HXgeYkRbgLWjogWji22KfIEoKMk7Ql8NznGdhFxbnKGsVc3iNkR2K3+2gZYfsDD3AGcB5xaf53pPR/ySdoWOCc5xl5+BbibPAHoKElfAfZNjPCDiHhG4vhjTdIjKW+A7EEp/suOOMJdwJnAKcCJEfHbEY9vlaSTgcxDek6KiBcmjm/T5AlAB0laGfg9o7/pL+jJEXF64vhjR9JywN7Ayyk7P7ayhmce8BPKq2nfjIg7c+OMF0lPAn6eGOEuYM2IuCUxg01DKzcQm5p9yS3+p7v4j46kx0o6ljLpOxF4Km1du0tQMp0I/F7SsZIem5xpbNRrMfN6XJbcbqRNU0s3EZu8/ZPHf3/y+GNB0saSjqe87/0aYKXkSJOxEiXrFZKOl7RxdqAxkX1NZt+TbBr8CKBj6jerqwAlRbgwIrZMGnssSNoUeDdldXfW5zwoAXwDeFdEXJIdps8kXQBskTR8AOtFxDVJ49s0uAPQPfuTWxSOSxy71yStIOkjwPnAPnS/+EP5M+wDnC/pI5JWyA7UY8clji3cBegcdwA6RtKVwPpJw88FHhkRf0gav7ckvQA4Glg7O8uQ3QAcGhFfzQ7SN5LWAH4LzEqK8OuIeFzS2DYN7gB0iKRNyCv+AKe4+A+WpEdI+gFwEv0v/lD+jCdJ+oGkR2SH6ZN6bZ6SGGH9eo+yjvAEoFuekjz+8cnj94qkPSjt/j2ysyTYg/JYYBz/7MOUfY1m36NsCjwB6JbMi+sW4DuJ4/eGpFmSjgROJncr52yrAydLOrJubW0z9x3KtZrFE4AO8QSgIyQtAeySGOEkb/06c/U57WnAW+jHIr+ZEuXv4rT6d2MzUK/RkxIj7FLvVdYB/qC6Y0vgYYnjfyFx7F6oZ7jPBnbKztKgnYDZ9e/IZibzWn0Y5V5lHeAJQHdkttauiojZieN3nqStKMV/vewsDVuPMgnYKjtIl9Vr9arECH4M0BGeAHRH5kV1QuLYnSdpF0rbf83kKF2wJuVxQObjrj7IvGY9AegI7wPQAXWB1F+4//z2UVsvIq5OGrvTaiH7AblnN3TRXcDTI+Jn2UG6qD5KyeoC3AY8LCLmJo1vk+QOQDdsR17xP8PFf3pqK/vbuPhPx7LAt/04YHrqNXtG0vArUu5Z1jhPALohs6X2v4ljd1b9BnYysHJ2lg5bmfKaoBcGTk/mtevHAB3gCUA3ZF5MP00cu5Pq62w/xM/8B2FN4Id+RXBaMq9dTwA6wGsAGidpGeBmYLmE4f8KPDwi5iWM3Ul1vcZp+FW/QZsN7OrnypNX38f/M/DQhOHvBFaJiLsTxrZJcgegfTuQU/wBfubiP2XvxcV/GHai/N3aJNVrN2sR5XKUe5c1zBOA9mW20n6SOHbn1H3t35ydo8fe7LMDpizzGvZjgMZ5AtC+3RLH9vP/Saon2x2Pt/cdJgHH+xTBKcm8hjPvXTYJXgPQOEm3kvMK4B8iwovYJqke6etvp6NxSkQ8PTtEV0j6PZCxiPK2iFgpYVybJHcAGla/6WS9/39q0ridI+kFuPiP0h7179wmJ+taXtHdmrZ5AtC2DRPHdvt/EiStABydnWMMHV3/7m3xMq/lzHuYLYYnAG3zBKB9RwBrZ4cYQ2tT/u5t8TwBsAl5AtC2rIvnuojIPE2sEyRtCrwuO8cYe139DGwR6rV8XdLwngA0zBOAtmVdPH7+PznvBmZlhxhjsyifgS1e1jXtCUDDfPNqW9bF86ukcTtD0sbA87JzTNItwPeAc4HfATcu8E+AtYBHLPDPbYE96cY5Bs+TtHFEXJYdpHG/Al6eMK4nAA3zBKBRdQvgxyQNPydp3C55K22/838j5STCbwGnRsS9i/jfXlF/zSdpKcp73M8FnkOZHLRIlM/igOwgjcu6ph8jaRlvCdwm7wPQqPps8+Kk4deNiGuSxm6epMdSCmaLE+gbgXcBn4+I+wbxG0paEngFpd3e4kRgLrCBf2YXrv7MZh3rvVlEXJI0ti2C1wC0K6t1djd5C4a64o20V/xvBd4OPC4i/mtQxR8gIu6LiP8CHlfHuHVQv/eAzKJ8JrZw11Gu7Qx+DNAoTwDalXXRXOkDgBZO0nLAftk5HuBkYL2IeH9E3DGsQSLijoh4P7BeHbMl+9XPxiZQr+krk4b3BKBRngC0K+uiuWLx/5OxtjfQ0vamHwP2iog/jWrAOtZedexWrET5bGzhsq5tTwAa5QlAu7IuGi8AXLSXZweo7gFeFRH/ltGxiYh5EfFvwKtqlha8PDtA47KubU8AGuUJQLs8AWiMpEcCu2fnoBTcZ0TE57KD1AzPoI1JwO71M7KJeQJg/8ATgAZJWg1YJWl4PwJYuP1o45p5TUQ0s1VzzfKa7ByUz6a19Rktybq2V6n3NGtMCzcze7B1Esd2B2DhWjjx72MtfPN/oJqphTUBLXxGrcq8tjPvabYQngC0KWuR2Z8i4i9JYzdN0rLAjskxTqbt193eSP7bATvWz8oeoF7bI1ss+gAtLZy1yhOANq2YNK7b/wu3I5BZWG4FDmj5Fc2a7QBy9wloYaLWsqxrPOueZovgCUCbsi6Wa5PG7YLdksf/0Chf9ZuumvFDyTGyP6uWXZs0ricADfIEoE1ZF0trO7y1JLOo3AgcnTj+VB3N/QcNZfAEYOGyrnFPABrkCUCbsi6W25LGbZokAdskRnjXMHf4G7Sa9V2JEbapn5k9WNY17glAgzwBaFPWghlPACb2KGD5pLFvBD6fNPZMfJ68LsDylM/MHizrGvciwAZ5AtAmPwJoS+ZGJt8e5ME+o1IzfzsxgjefmZgfAdh8ngC0yY8A2rJR4tjfShx7pjKzZ35mLfMjAJvPE4A2eQLQlqxicgtwatLYg3Aq5c+QwROAiXkCYPN5AtAmTwDasm7SuN+LiHuTxp6xmv17ScNnfWat8wTA5vMEoE2eALRl5aRxz00ad5Cy/gxZn1nrPAGw+TwBaJMnAG3J+jx+lzTuIGX9GVxwJuYJgM3nCUCbsl6Z8VsAE1shadzMzXQGJevP4IIzsaxr3K8BNsgTgDa5A9AWdwCmL+vPkDVpa507ADafJwBt8gSgLVmfhzsA0+eCMzFPAGw+TwDatGTSuJ3bcMbMpiTrGs+6p9kieALQpruSxvU56hPL+ta0VtK4g5T1Z3A3a2JZ13jWPc0WwROANnkC0JasYvKIpHEHKevPcHvSuK3zBMDm8wSgTZ4AtCWrmLgDMH3uAEzMEwCbzxOANnkC0BZ3AKYv68/gCcDEPAGw+TwBaJMnAG3J2s9+26RxBynrz5D1mbXOEwCbzxOANnkC0Jark8bdU9JSSWPPWM2+Z9LwWZ9Z6zwBsPk8AWiTJwBtuTxp3JWB3ZLGHoTdyNuTP+sza50nADafJwBtyrpYfIDKxDKLyXMTx56pzOyeAEws6xr3BKBBngC0Keti6cOis2GYkzj2cyR1bhOVmvk5iREyP7OWZV3jngA0yBOANv01aVxPACb2G+COpLHXAl6RNPZMvIK8VwDvoHxm9mBZ13jWPc0WwROANmUdoOIJwAQiIoDzEiO8W9LyieNPSc367sQI59XPzB4s6xrvw8FWveMJQJs8AWjPqYljrwUcmjj+VB1K7iZGmZ9V6zwBsPk8AWiTJwDtyS4qb5K0anKGxaoZ35QcI/uzapknADafJwBt8gSgPWeSu5BpJeB4Sc1eszXb8ZSsWe6ifFY2MU8AbL5mbyZjzhOAxkREC4XlGcCHkzMsyocpGTOdWT8rm5gnADafJwBtyrpYlpbUhwNohuWU7ADAYZJemR3igWqmw7Jz0MZn1KR6bS+dNLwnAA3yBKBBEXErea+dbZw0bhecCMzLDgH8u6SnZIf4u5rl37NzUD6bE7NDNCzr2r6j3tOsMZ4AtCtrxuwJwEJExG+Bn2TnoHyLO7mFTkDNcDJ53ywX9JP6GdnENkka19/+G+UJQLuyLpqsm0RXHJcdoFoa+G9JH81YGChpCUkfBf6bNoo/tPPZtCprcu8JQKM8AWhX1mlm7gAs2jeBltqZhwHfHeUrgnWs79LGM/+/u5Xy2djCZU3ufTJjozwBaNelSeN6ArAIEXEn7T1nfgZwlaS3DXPHQEnLS3obcBX5q/0f6MT62djCZV3bWfcyWwxPANqVddGsIelhSWN3xYeBudkhHmAl4H3AlZL+eZAHCElaUtI/A1fWMTLf85/IXNp+PTKdpIcDqycN7wlAozwBaNcliWO7C7AIEXEN8KXsHAuxFvBZ4HpJx0p6mqSlpvqbSFqq/n+PBa6vv2err4h+qX4mtnCZ13TmvcwWQT4zo011YdftwHIJwx8SEcckjNsZkjam3NiUnWUSbgG+B5xLWZB14wL/hFLYH7HAP7cF9iTv7PipCGDTiLgsO0jLJL0O+HjC0HcCK0REC6/P2gPMyg5gE4uIeZIuB7ZOGP6JgCcAixARl0n6BrBPdpZJWBl4Sf3VN99w8Z+UJyaNe7mLf7v8CKBtWa2zrJtF17yL9tYCjJO5lM/AFi/rmnb7v2GeALQta/HMOpIemTR2Z0TEJcAnsnOMsU/Uz8AWQdI6QNb17AWADfMEoG2ZF4+7AJNzBHBDdogxdAPl794WL/Na9gSgYZ4AtC3z281OiWN3RkTcDhyanWMMHVr/7m3xMicA7tA0zBOAtl0F3Jw0tjsAkxQRX8Wn0I3SKfXv3CYnazJ/M+UeZo3yBKBhUd7RzDqDfqth7irXQ68AbsoOMQZuovxd2yRIWgHYMmn4M8PvmTfNE4D2zU4adxbQzJGzrYuI3wEHUN5Lt+EI4ID6d22T8xRgYLtCTlHWvcsmyROA9v0icey9EsfunIg4Bfhgdo4e+2D9O7bJy7yGM+9dNgneCbBxtQ1/CzmbNt0QEX4dcAokzQJOw4soB202sGtEeN+FSZIk4LfkbOE8F1g5Iu5IGNsmyR2AxtUL6Pyk4deWlLETYWfVArUPXvw0SFcB+7j4T9nW5J3fcL6Lf/s8AegGPwbokIj4A/A04PfZWXrg98DT6t+pTY3b/7ZIngB0Q+ZiGk8ApiEirgaeQXl8Y9NzC/CM+ndpU5d57XoBYAd4DUAH1G15f5M0fACP8Dew6ZG0C/ADYNnsLB1zF/D0iPhZdpAukrQm5bTHrNMqHxURv00a2ybJHYAOqBfStUnDC3hW0tidVwvY03EnYCpuwcV/pvYir/hf6+LfDZ4AdMfJiWPvnzh259VCtiteEzAZv6es9nfxn5nMazbzXmVT4AlAd/xv4thPkvTYxPE7LyLOp7wa6LcDFu4qYKf6d2XTVK/VJyVGyLxX2RR4AtAdpwJZr9UIdwFmrC5m2wkvkJrIbErx94K/mdufvPb/HZR7lXWAJwAdERF3AT9KjHBA4ti9URdT7gochbcNhvJ3cBSl7e+FpoORea3+qN6rrAM8AeiW7yaOvZ4k7243ABExNyLeSnlNcJwPELqJ8prfW73Jz2DUa3S9xAiZ9yibIk8AuuV75H5rfFni2L1T97XfivE8SvgUYCvv7T9wmddoUO5R1hHeB6BjJJ0NbJc0/C3Amm7xDZ6kFwBHA2tnZxmyG4BDI+Kr2UH6RtKylLcoVk6KcE5EbJ80tk2DOwDdk9liWxl4UeL4vVUL4kbARykHqfTNXMqfbSMX/6F5EXnFH9z+7xxPALon+xWbw5LH762IuD0i3kB5LPB1+rFIMCh/lq0i4g0RcXt2oB57ffL42fcmmyI/AuggSVcB6yZGeGpE/Dhx/LEgaWPgrcCLyTkOeibmAl8CjoyIy7LD9J2k3YCfJka4OiIyFx/aNLgD0E0nJI/vLsAIRMRlEXEAsAHw78CtyZEm41ZK1g0i4gAX/5E5NHn87HuSTYM7AB0kaT3g14kRAtjUN/fRkrQcsDfwcmB32pnAzwN+AhwHfDMi7syNM14kPQ64nNyfh/UjwrtcdownAB0l6QzKrnJZPhMR/5o4/lirJ0TuB+wB7MjoTxu8CziT8jrfXBDRpQAAIABJREFUiT78JY+kY4CDEiPMjoidE8e3afIEoKMk/Qvwn4kR7gTWiYg/JWYw5r/+tSOwW/21DbD8gIe5AziPss3rqcCZfh00n6SHAr8FHpIY418j4jOJ49s0eQLQUfXC/x2558y/NyLemTi+TUCSgEcBG1JeLdyIsmh0ZWBFYIX6zxXr/+U24Pb6z9so+z1cTWkrXw7MAX4Tvlk0R9LhwPsTI9wFPCIi/pqYwabJE4AOk/QVYN/ECLcB67oLYDZ69UvA1cAqiTFOiogXJo5vM9DKIiKbnuOTx1+R8pqamY3eG8kt/pB/D7IZcAegwyTNomytunpijLuAx3kRmNnoSFoDuIrcZ/83AWv7IKfucgegw+qFlz0DXxZ4R3IGs3FzOLnFH+B4F/9ucweg4yQ9mvJNYMnEGHOBjSMic28Cs7FQr/krgKUTY9wHrBcR1yVmsBlyB6Dj6gX4jeQYs4D3JGcwGxfvIrf4A3zDxb/73AHoAUk7UDZlyRTAthHxq+QcZr0laVPgAnI7fgA7RsRZyRlshtwB6IF6IWZfjAI+Vd9BN7PhOIb84n+Wi38/eALQHx/LDgA8Edg/O4RZH0l6IWWnx2wt3GtsAPwIoCckLUlZDPjo5Ch/oJwE14WT68w6QdJDKLsyPjI5ynWUxX/3JeewAXAHoCfqBfnJ7BzAGsC7s0OY9czbyS/+AJ908e8PdwB6RNJKlINBVlzc/3bI5gJbR8TFyTnMOk/SBsBF5K/8vw14pLt7/eEOQI/UC/Oz2TkorwUekx3CrCc+SX7xB/isi3+/uAPQM5JWoxwQskJ2FuDFEfHl7BBmXSVpb/L3+YByWuS6EfHH7CA2OO4A9Ey9QI/OzlF9RFILExGzzpG0HO1cy0e7+PePJwD99BHgz9khgLXxOQFm0/UW8t/qgXIv+Uh2CBs8TwB6qD6nOyo7R3WopA2zQ5h1iaR1gTdl56iO8rP/fvIagJ6q7cMrKd/Cs/0oIp6WHcKsKyR9B3hWdg7gRmD9iLgzO4gNnjsAPVUv2Pdm56ieKul52SHMukDSnrRR/AHe4+LfX+4A9JikWcBlwPrZWSg7iG3sm4nZwklaBrgEWC87C/BryjU7NzuIDYc7AD1WL9x3ZueoHg0cnh3CrHFvoI3iD/BOF/9+cweg5+rpfOcA22RnAe4GNo2Iq7KDmLVG0jqUjt3y2VmAX1GO93aB6DF3AHquXsAHAS1cyMsAn8gOYdaoj9FG8Q/gYBf//vMEYAxExJnAF7JzVHtK2is7hFlLJD0V2Cc7R/U/ETE7O4QNnx8BjAlJqwNXACtnZ6EcW7xpRNydHcQsm6SlgAuBjbKzALcCG0bE77OD2PC5AzAmIuIm2lkQuB7tbHJilu31tFH8AY5w8R8f7gCMEUlLUhb3bJ6dBbiT8orRddlBzLJIWguYQxuHd10CbOWV/+PDHYAxEhH3URYEtmA5yqIns3H2Edoo/lAW/rn4jxFPAMZMRPwc+FJ2jup5krxFsI0lSbsAL87OUX0lIk7NDmGj5UcAY6ixtuMcYPOIuDc7iNmo1F06fwVslp0F+BuwUUT8NjuIjZY7AGMoIm4E3pOdo9oQODQ7hNmIHUgbxR/gvS7+48kdgDHV2KtHt1O+gdyQHcRs2CStQel8tfBK7hWUDtw92UFs9NwBGFO15X5wdo5qBcpiKLNx8EHaKP4Ah7j4jy93AMacpK/Rzg5ku0XEadkhzIZF0hOBMwBlZwG+GRE+pnuMeQIw5ho7gORiYGu/imR9JGkJysFcW2dnoezDsUlEXJsdxPL4EcCYi4jrgQ9k56g2o519CswG7V9po/gDHOXib+4AGJKWoewC1sI55LcCG0TEH7KDmA2KpFUpC+5Wyc4CXE05i+Ou7CCWyx0Aox7K87rsHNVKwIeyQ5gN2Adoo/gDvN7F38AdAFuApO8Az8rOQTmPfOeI+EV2ELOZkrQ9cBZtfOH6fkTsmR3C2uAJgM0naV3Ko4Bls7MA5wPb1fMLzDpJkijF//HZWYC7gc0i4tfZQawNLcxIrRERcTXw4ewc1VaURVNmXfZK2ij+AB9x8bcFuQNg/0DScpTXAh+dnQW4mbIg8E/ZQcymStIqlIV/q2ZnAa6nHL99R3YQa4c7APYPIuJO2tmbfxXgyOwQZtP0Xtoo/gCHufjbA7kDYBOSdArQwlG9ATwhIs7ODmI2WZK2omz6s2R2FuDHEfHU7BDWHk8AbEKSNqQcFrR0dhbg/4Adwj+s1gF14d/pwE7ZWYB7gS0i4vLsINYePwKwCUXEHODo7BzV44FXZYcwm6SX0kbxB/i4i78tjDsAtlCSVgAuB9bOzgL8ibIg8ObsIGYLI2klylG/a2ZnAW4ENoyI27ODWJvcAbCFqjeON2TnqFalLKoya9kRtFH8Ad7o4m+L4g6ALZakU4Fds3MA91E2Bzo/O4jZA0nalLKB1azsLMDPI2KX7BDWNncAbDIOAlo4ondJ4FN1kZVZaz5FG8X/Pnyqpk2CJwC2WBFxCeXm1oKdgP2zQ5gtSNILaaNLBvDpiLgoO4S1z48AbFLq4qYrgDWyswC/pyxuujU7iFlji2VvoiyWvSU7iLXPHQCblFps35Sdo1qTstjKrAVvp43iD/BmF3+bLHcAbNLqs/czgCdmZ6GsSdiqPp4wS9HYhllnAjt5wyybLHcAbNLqjeVAyiKjbLNoZ12Cja9P0kbxnwcc5OJvU+EJgE1JfQXvP7NzVLvWxVdmIydpb9o4LwPgMxFxXnYI6xY/ArApa+yY0xsoCwL/lh3Exkdjx2b/mbLw7y/ZQaxb3AGwKavb8b41O0e1NvCO7BA2dt5KG8Uf4HAXf5sOdwBsWiQtAZwFbJ+dBbiHcuLZnOwg1n+S1gMuAZbJzgKcCzw+IuZlB7HucQfApqXecA4CWphBLk1ZjGU2Ch+njeIfwIEu/jZdngDYtEXE/wGfy85RPa0uyjIbGkl7Antl56g+HxG/zA5h3eVHADYjklalLAhcJTsLcB2wcUTcmR3E+kfSMpTW/3rZWYC/Uhb+/TE7iHWXOwA2IxHxJ9pZhPdo2lmcaP3zRtoo/gDvcPG3mXIHwGZM0pLAOcBW2VmAu4BNI+Lq7CDWH5IeTXntb7nsLJSdB7eJiBY25LIOcwfAZqzeiFo5fnRZ4BPZIax3PkYbxR/Kjn8u/jZjngDYQETEbOCE7BzVXnWxltmMSXoa8LzsHNX/RMTp2SGsH/wIwAZG0prAHGCl7CzAVZRHAXdnB7HukrQUcBGwYXYW4DbKrpe/yw5i/eAOgA1MRPyedo7pXY+yaMtsJg6ljeIP8G4XfxskdwBsoCTNAs4HNs3OAtxBeS3w+uwg1j2S1gYuB1bIzgJcSjn++t7sINYf7gDYQEXEXODg7BzV8pTFW2bT8RHaKP4AB7v426B5AmADFxGnAl/JzlHtI+mp2SGsWyTtCrwoO0f11Yj4aXYI6x8/ArChkPRISvv0IdlZKDm28Dcom4zGHmP9jfIY6zfZQax/3AGwoYiI3wLvy85RbQS8PjuEdcZBtFH8Ad7v4m/D4g6ADY2kpSmvUG2QnQW4nfIK1Y3ZQaxdktagnG3RwqusVwKbRcQ92UGsn9wBsKGpN65DsnNUK1AWdZktyodoo/gDHOLib8PkDoANnaRvAs/NzlHtGhE/yw5h7ZG0E3A6oOwswLcjopVrxnrKEwAbOkmPobzH3MJe6hcDW9fXFc2AJg+02iQirskOYv3mRwA2dBFxLXBUdo5qM+DA7BDWnH+ljeIPcJSLv42COwA2EpKWpXQBHpudBbiFsiDwD9lBLJ+kVSkL/1bJzgJcQ/n2f1d2EOs/dwBsJOoNrZVX8VYGPpgdwppxJG0Uf4BDXfxtVNwBsJGS9D3gmdk5gAB2johfZAexPJK2B35JGwv/To6IFq4NGxOeANhISVqfshBvmewswK+A7SJiXnYQGz1JohT/7bOzAPdQ3vm/MjuIjQ8/ArCRiohfAx/NzlFtTVn8ZePpVbRR/AE+6uJvo+YOgI2cpOUp+/M/KjsL8Bdgg4j4c3YQGx1Jq1AW/q2anQX4DWW//79lB7Hx4g6AjVxE3AEclp2jehhlEZiNl/fRRvEH+DcXf8vgDoClkfRjYPfsHMA84AkRcU52EBs+SVtTNv1p4QvQTyLin7JD2HjyBMDSSNoYuABYKjsL8H/ADuELotfqwr8zgCdmZwHuBbaMiMuyg9h4amEGbGOq3vg+kZ2jejzwyuwQNnT700bxB/iki79lcgfAUklaEZgDPCI7C/BHyoLAv2YHscGTtBJl4d8a2VmA31F2o7wtO4iNL3cALFW9Ab4xO0e1GmVxmPXTu2mj+AO80cXfsrkDYE2Q9DPgydk5gPuAbSPiguwgNjiSNqNs/DQrOwtwekS08LNuY84dAGvFwZTim21J4FPZIWzgjqGN4n8fcFB2CDPwBMAaEREXAsdm56h2lrR/dggbDEkvAnbNzlEdW3/WzdL5EYA1Q9JDKQsCV8/OAvyeskjr1uwgNn2SVqDsOrl2dha8yNQa4w6ANaPeGN+SnaNaE3hXdgibsXfQRvEHeLOLv7XEHQBrSt2o5RfADtlZgLmUjVouzQ5iUydpQ+Ai2tho6pfAjt5oylriDoA1pd4gD6Jsz5ttFl4Q2GXH0Ebxnwcc6OJvrfEEwJoTEecCn83OUe0mad/sEDY1kp4HPDU7R/XZ+jNt1hQ/ArAmSXo4Zde2h2VnAX4LbOQT27qhHjd9GbBOdhZ83LQ1zB0Aa1K9YR6enaN6JPD27BA2aW+ljeIP8DYXf2uVOwDWLElLAGcD22RnAe4BNo+IK7KD2MJJWg+4BFgmOwtwHrB9RLSwnsXsQdwBsGbVG+eBQAuz1KWBT2aHsMX6BG0U/6As/HPxt2Z5AmBNi4izgOOyc1R7SHpudgibmKS9gD2zc1RfqD+7Zs3yIwBrnqTVKQsCV87OAlwLbBIRd2YHsftJWpbS+l83OwtwC2Xh303ZQcwWxR0Aa169kb4zO0f1GNrZrdDu90baKP4A73Txty5wB8A6QdKSlONcN8/OAtwFbBoRV2cHMZD0aMprf8tlZ6HsPLh1RLRwsqXZIrkDYJ1Qb6itHKO6LPDx7BA239G0UfwBDnLxt67wBMA6IyJ+DnwxO0f1LEnPzA4x7iQ9Ddg7O0f1xfozatYJfgRgnSJpLcrxritmZwF+DWwWEXdnBxlHkpamtNw3yM4C3EbZLfLG7CBmk+UOgHVKvcG+JztHtT7whuwQY+xQ2ij+AO9x8beucQfAOkfSUsCFwEbZWYA7gI0j4vrsIONE0trAHOAh2VkoHaktIuLe7CBmU+EOgHVOvdEenJ2jWh74aHaIMfRR2ij+AAe7+FsXuQMwYJKOxO+Jj6OnRsSPs0OMA0m7AT/NzmEj9e6IOCI7RN94AjBA9Qjba4EVkqPY6LkNPAKSZgHnA5tmZ7GRugV4TET8NTtIn/gRwGD9Gy7+42oj4HXZIcbAwbj4j6OVKYs+bYDcARgQSQ+jfPtv4fU0y3E7sKFXgw+HpDUpC/9Wys5iKW6ldAFuzg7SF+4ADM5huPiPuxWAD2eH6LEP4eI/zlai3GdtQNwBGABJq1C+/fvmZAC7eEe4wZK0E3BGdg5LdxulC/CX7CB94A7AYByKi7/d71P18CIbgPp3+ensHNaEFSlrrWwAPAGYofrt34u/bEGbAwdmh+iRVwNbZoewZhxc37iyGfIEYOZej7/924O9R9Lq2SG6TtJqwHuzc1hT3AUYEE8AZkDSQ/G3f5vYysAHs0P0wJHAKtkhrDkHS1o1O0TXeQIwM6+j3OjNJvIySTtmh+gqSY8HXpmdw5q0Aj6Ia8b8FsA0SVqZsvL/oclRrG3nAdtHxLzsIF0iaQngl8B22VmsWX8DHhsRf8wO0lXuAEzf63Dxt8XbBviX7BAd9Cpc/G3RHoK7ADPiDsA0SFqJ8u3fzyZtMv4CbBARf84O0gV1V805gJ/x2uK4CzAD7gBMzyG4+NvkPQz4QHaIDnkfLv42OQ8B3pQdoqvcAZgiSSsC1+EJgE3NPODxEXFudpCWSdoaOAd/ObHJu4PSBbgpO0jX+CKbOn/7t+lYAvi0JGUHaVX9u/k0vi/Z1CwPvDk7RBe5AzAF9dv/tZSWrtl0vCoiPpcdokWSXgYcl53DOulOShfgD9lBusQz7ak5CBd/m5mj6gZStoD6Wq03TrLpWg53AabME4BJkrQC3n7SZs5b207s3cAa2SGs014tac3sEF3iCcDkHQT4AAobhNdI2iI7RCskbYYPT7KZWw54S3aILvEagEmQ9BDKs3+/mmSDcnpEPDk7RAsknQbskp3DeuEuYN2I+F12kC5wB2ByDsTF3wbrSZJemh0im6QX4+Jvg7Ms7gJMmjsAi1G//V9DeXZrNki/AzaMiNuyg2So62rmAGtlZ7FeuQtYLyJuzA7SOncAFu+1uPjbcDwCeFd2iETvxMXfBm9Z4K3ZIbrAHYBFkLQ85dv/6tlZrLfmAltGxKXZQUZJ0kbAhcBS2Vmsl+6mdAFuyA7SMncAFu01uPjbcM0CjskOkeAYXPxteJYBDs8O0Tp3ABZC0nKUb/9+N9lGYd+I+Gp2iFGQtA/wtewc1nv3ULoAv80O0ip3ABbu1bj42+h8rC447bX6WO1j2TlsLCyNuwCL5AnABOq3fx8xaaP0SOBt2SFG4HBgnewQNjZeJck/bwvhRwATkPR64OjkGN7QYgTqCXRnAY/PzkJpWW4WEVdmBxkGSesDF1Oez2b7P2CH8A1waOr5DtcC2Wdf/GdEvDo5Q5PcAXgAScvSxrf/z7j4D18tAAcB87KzUFqWn8wOMUSfoI3iPw84yMV/uCLiFvK/SAG8UtKjs0O0yBOAB/sXyvvZme7CJ6ONTEScDbRyRO/TJT0nO8SgSXoW8MzsHNXn6mduw/cJ4ObkDEvhtQAT8iOABdRv/1eRvznJMRFxSHKGsSJpVeAKYJXsLJS26cYRcVd2kEGo19UlwLrZWSjFaIOI+FN2kHEh6R3Ae5Jj3Ev53K9NztEUdwD+0f8jv/jfjb/9j1wtCG/PzlE9hn7tZ/4m2ij+AG938R+5VroA47DIdkrcAagkLUP59r92cpRPR8RByRnGkqQlgHOBrbKzUB4DbRIR12QHmQlJjwEupRzVmu18YNuIaGG9x1iR9Dbgfckx7qWcvdHpa2qQ3AG43z+TX/zvBo5KzjC2amE4EGhhVrws8PHsEANwNG0U/wAOdPFP80ngL8kZlqKdLl8TPAFg/rf/Flqun/OuVbki4hfACdk5qmdLekZ2iOmStAfw3Owc1Qn1s7UE9cTLj2TnAA6Q1MrjqHR+BABIei3w6eQY9wDrR8RvknOMPUlrUBYErpSdBbiSsjfAPdlBpkLS0sBFwAbZWYBbKQvA/pAdZJzV45+vBR6eHOXzEfHK5AxNGPsOQL1RtfLt38W/AbVQtHJM7+OAN2SHmIbDaKP4A7zLxT9fRNxOG12A/SWtlx2iBWPfAZD0auDfk2PcAzwuIq5PzmGVpFnAr4DNsrMAdwAbdWWCKOmRwOVAC2cbXAxsHRFzs4PY/C7ANcCqyVG+EBEvT86Qbqw7APXb/1uzcwDHufi3pRaMg7NzVMsDH80OMQUfpY3iD3Cwi387ahfgw9k5gJfWranH2lhPAIBXkH8wyb3AB5Iz2AQi4jTgy9k5qhdI2j07xOJIegqwb3aO6sv1M7S2fBr4Y3KGJYF3JGdIN7aPACQtRVlglb1H9Gcj4l+SM9hCSFqb0s5eITsLcBmwZUTcmx1kIvWxyQXAJtlZgNspj01uyA5iDybpjcCHkmPcR9lr44rkHGnGuQPwcvKLv7/9N64WkPdm56g2BlreIvoQ2ij+AO918W/ap4GbkjOMfRdgLDsA9dv/FZQtVzP9d0T8c3IGW4z683IRsGF2FuA2ym5mTZ0UKWlNyjW1YnYWYA6weaudEisk/Rv5bwXcB2waEXOSc6QY1w7AAeQX/7nA+5Mz2CTUQtLKN+8VaWMR1QN9mDaKP8AhLv6d8O9A9uuZSwLvTM6QZuwmAPU5ZQuHQpzgPam7IyJ+CHwjO0e1n6QnZYf4O0k7Ay/NzlF9o35W1riIuIM2Dj57kaSNskNkGLtHAJJeCfx3coy5lAVKVyXnsCmQ9GjKQrwW9ra/ENgmIu7LDCFpScoBSltm5qjupByjfF12EJscScsBVwNrJkf5UkS8JDnDyI1VB6Chb///4+LfPbWwHJmdo9oCeG12COA1tFH8AY508e+WiLiTNroAL5S0cXaIURurDoCklwOfT45xH+Xb/6+Tc9g01IOjLgFa2Er0r5QFgSmrqSWtRln499CM8R/gKspirruzg9jUSFqW0gV4RHKUr0TEi5IzjNTYdABqq7KFoyBPdPHvrlpgXp+do3ooucdHH0UbxR/g9S7+3RQRd9HGMegvkLRpdohRGpsOgKSXAcclx7iP8ozyyuQcNkOSvgvsmZ2Dcs79EyPirFEOKukJwJmARjnuQnw3Ip6VHcKmr3YBrgLWSo5yUkS8MDnDyIxFB6B++2/h2f8XXfx743VAC984BXxK0siu5TrWp2ij+LfUkbFpaqwL0MIBYCMxFhMA4CWUY1Uz3Qe8LzmDDUhdxNnK+/jbAv9vhOP9M7DdCMdblA97QW1vfAbI3r1RtHMU+ND1/hFA/fZ/Kflnk58YEa28K20DUF9huoz8LaUB/kxZEPjnYQ4i6WGUhX8PH+Y4k3Qd5ZHandlBbDAkHUjpLmUKypkbFyXnGLpx6AC8mPziP4929pO3AamF57DsHNXDGc3Oku+njeIPcJiLf+/8F/Db5AwCjkjOMBK97gDUZ5WXkr+H+1huMjEuJP0QeGp2DspE8/ERce4wfnNJ2wBn08YXhx9FxNOyQ9jgSXoNcGxyjAC2jogLknMMVd8nAC8BTkyOMQ/YLCIuS85hQyJpQ8phQUtlZwHOorwVMNALW5KA2cCOg/x9p+leymE/Y3mAS99JWhr4NfCo5CjfjIjnJWcYqhZm8kNRv/23cNTjSS7+/VYL0dHZOaodKEddD9rLaKP4Axzt4t9fEXEPbRyT/lxJW2WHGKbedgAkvRj4YnKMeZRvKpcm57Ahk7QCcDmwdnYWyjnrG0bEXwfxm0lambLwb/VB/H4zdANlJ83bs4PY8NQuwJXAOslRvh0Rz03OMDS97AA09O3/ay7+46EWpDdk56hWB94zwN/vPbRR/AHe4OLff7UL0MJx6c+RtHV2iGHpZQdA0guBLyfHCMq3/0uSc9gISToV2DU7B2XfiW0i4sKZ/CaSNgd+RTk3PdtpEbFbdggbDUlLUboA2a/ZficinpOcYSh61wGoi5Va+fbv4j9+DqYc95xtSQbzPvWnaKP4z6X83dqYiIh7aaML8GxJ22aHGIbeTQCAFwDZBzoEfu9/LEXExeRvZPJ3T5K033T/z/UtmicPMM9MfKr+3dp4OQ64NjkD9HRfgF49Aqjf/i8Esvdy/npEPD85gyWRtBJl0dwa2VmA31EWBN42lf+TpBUpixqzD2cB+AOwQUTcmh3ERk/SqygbBGXbPiLOyQ4xSH3rAOxDfvEPBrsAyzqmFqo3Z+eoHgG8cxr/v3fSRvEHeLOL/1j7AnB1dgjg3dkBBq03HYD67f8CYPPkKL3fPMIWr/48ngE8MTsLZeOcLSe7H4WkjSnXUgsbG/0C2HnQGxtZt0h6BfC57BzAEyLi/7JDDEqfOgB7k1/8gx7OEm3qasE6iLIXRLalgGOm8L//JG0U/3nAQS7+BpwAtHDq4xHZAQapFxOA+m1rOm3OQft23/eOtsmLiF8B/5Gdo9pd0mLXpdT/zT+NIM9k/Ef9O7QxFxFzaeM49WdIekJ2iEHpxSMASXsD38jOQXnv2jcsm0/SKpQFgatmZwF+Q9lF746J/ktJy1MW/mXvwQ7wJ8rCv5uzg1gb6tHulwPrJ0c5JSKenpxhIDrfAWjo2/93XPztgWoBOzw7R/Uo4G2L+O/fRhvFH+BwF39bUETcRxuvV+8hqZVzMWak8x0ASc8BvpWdA9g2Is7LDmHtqVtTnwVsn50FuIdyOuWVC/6HktYHLgaWSUn1j84GdoiIFtZPWENqF+Ay4HHJUX4YEXskZ5ixzncAgHdlBwD+18XfFqYWsoMoi0SzLQ18YoL//JO0UfyDsvDPxd8epKEuwNMktfCGz4x0egIg6dlACwc1+L1/W6T66lALrzFBWcj07L//m/qvn5GYZ0Gf69NrVjYUX6Ssq8nW+Te+Ov0IQNI5QPYezd+LiL2SM1gHSFoNmAOskp0FuAbYpP7rS4HHJmb5u5spuxb+MTuIta1ucf0/2TmAJ0XEGdkhpquzHQBJe5Ff/KEHs0AbjVrYWjioCkrBf3P91ULxB3iHi79N0pcobwRk6/T9v7MdAElnA9slxzg5Ip6ZnME6pC5iOgfYKjsLcGf953KpKYrzge3qM16zxZL0YsrjgGxPjojTs0NMRycnAJL2BL6bnYOyUvmX2SGsWyTtRNkm2O63c0TMzg5h3VHfrrkY2Dg5yqkR8ZTkDNPS1UcALaz8/4GLv01HLXQnZOdoyAku/jZV9U2RFhZg7yZpl+wQ09G5DoCkZwDfz84B7BgRZ2WHsG6StCZlQeBK2VmS3UpZ+Pf77CDWPbULcBH3L2jN8rOI2DU5w5R1sQPQwrf/H7r420zUgndEdo4GHOHib9NVuwAtLMTbRdJu2SGmqlMdAElPB07OzgHsFBG/yA5h3SZpFmXx26bZWZJcAmxVD3oxm5a6HfxF5F9HP4+ITj0K6FoHoIVv/z9y8bdBqIXv4OwciQ528beZqsdFt9AFeLKkTi0G7MwEQNLTgB2yc9DGD5r1REScCnwlO0eCr9Q/u9kgfI3SBcjWqfrQmUcAkmYD2Xsv/yQiWjkr3XpC0iMpm5o8JDvLiPyNcizxb7O4QnesAAAMAUlEQVSDWH9I2ocyEcj21Ij4cXaIyehEB0DSU8kv/tCx2Z11Qy2ELRxwMirvdfG3IfgGcGF2CDq0uLcTHQBJZwA7Jcfo7GYP1j5JS1NamBtkZxmyK4DNI+Ke7CDWP5L2pkwEsj0tIn6UHWJxmu8ASNqd/OIPHZrVWffUgnhIdo4ROMTF34boW5Q3a7J1olvc/ASANlb+nxYRP88OYf0WEacA38zOMUTfrH9Gs6Fo6I2AHSXtkR1icZp+BFA3Vvhpdg5gt4g4LTuE9Z+kRwOX0cYBPYN0J7BxRFyXHcT6T9J5wNbJMc6KiB2TMyxS6x2AI7IDUDZ3OC07hI2HWiCPys4xBEe5+NsIHZEdANihbl3frGY7AJJ2BVp4T3j3iGihC2FjQtKylF3y1s3OMiBXA5tGxF3ZQWx8SDoX2CY5xv9FxBOSMyxUyx2AFp79n+7ib6NWC+Xrs3MM0Otd/C3BEdkBgMdLemZ2iIVpsgMg6cnAz7JzAP8UET/JDmHjSdL3gGZvHpP0/YjYMzuEjSdJZwPbJcc4OyIen5xhQq1OAH4KZJ+sNDsidk7OYGNM0vrAxcAy2Vmm6W5gs4j4dXYQG0+S9gS+m50DeFZEtJDjHzT3CEDSk8gv/tDGqyQ2xmrh/Eh2jhn4iIu/ZYqI7wFnZ+egjccRD9JcB0DSj4Hdk2P8IiJa2HzIxpyk5SmvBa6TnWWKrqe89ndHdhAbb3Ul/vezcwDPjoj/zQ6xoKY6AJJ2Ir/4g7/9WyNqAT0sO8c0HObiby2IiJOBX2bnoMEuQFMTANpY+X9WRPwwO4TZ30XE14FOnC5W/bhmNmvFEdkBgG0kPSc7xIKaeQQg6YnA7OwcwDMi4gfZIcwWJGkjyklnS2VnWYx7gS0i4vLsIGYLknQmsENyjPOBbaKRwttSB6CFb/+/dPG3FtWC+vHsHJPwcRd/a1QLNWYroJkuQBMdAEk7AGdm5wD2jIgWFouYPYikFYA5wFrZWRbiRmDDiLg9O4jZRCTNBp6YHOMCYOsWugCtdABamJmd7eJvLauF9Q3ZORbhDS7+1rgjsgMAWwJ7Z4eABjoAkp4AnJUaotirvjNq1jRJpwG7ZOd4gJ9FxK7ZIcwWR9IZQPZr3hcCW2V3AVroALTw7f8cF3/rkIOBudkhFjCXksmsC1qoOVsA+2SHSJ0ASNoeaOG4xPdkBzCbrIi4CPh0do4FfLpmMmtePd/l9OwcwLskKTNA6iMASd8Fsg8KOS8itk3OYDYlklamLAhcIznKHygL/25JzmE2aZJ2A1o46XXfiPhq1uBpHQBJ25Ff/MG7/lkH1YL7luwcwFtc/K1rIuJU4OfZOShdgLw6nNUBkPS/wF4pg9/vVxGxTXIGs2mp7cPZwI5JEc4EdspeyGQ2HZJ2BU7NzgG8KCK+kjFwygRA0rbAOSMf+MH2johvZYcwmy5J21BOOxv1t4h5wPYRcd6IxzUbGEmnArsmx7gU2Dwi5o164KzWwzuTxl3QBcC3s0OYzUQtwJ9JGPozLv7WAy28EbAJsG/GwCPvAEjaGmjhxrFPRHwjO4TZTEl6GHAF8PARDflnYIOI+MuIxjMbGkk/AZ6SHONyYNNRdwEyOgAtzLguBL6ZHcJsEGohPnyEQx7u4m89ckR2AGAj4EWjHnSkHQBJW1G+/ae++wg838eVWp/UlcS/BLYb8lDnAE/IeF5pNiySfgzsnhxjDrDJKK+tUXcA3kl+8b8IcOvfeqXeNA4ChjmjD+AgF3/roRY60xsCLxnlgCObAEjaEnjuqMZbhPf6tSXro4j4JfD5IQ7x+TqGWa9ExGzgR9k5gHdIWnJUg43sEYCkrwPPG8lgC3cJ5XULTwCslyStRlkQ+NAB/9Z/pSz8++OAf1+zJkh6ImVfjWwHRMQJoxhoJB0ASZvTxvGH73Hxtz6rBfodQ/it3+Hib30WEb8AfpidgxF2AUbSAZD0VeD5Qx9o0dI2WzAbpXrzOJdy7vggXABsGxH3Dej3M2uSpB0oO1xme3lEfGHYgwx9AiBpM8prd9mL/14cEV9OzmBmZg2TdDLw9OQYVwEbRcRQj/0exSOAd5Bf/C8DTkrOYGZm7TsiOwCwHvDSYQ8y1A6ApE0pr91lTwD2i4gvJmcwM7MOkPQ94JnJMa6mHLU9tC7AsDsALXz7nwO49W9mZpN1xP9v7z565KiiMAy/R+Scc7CNiP+DHYI9CJGzQCDnhGTCkLeAyDkIEEn8DxBZJnhMTiJnEIdF28hGE7q6bs1td73Psqfq9rercz/11K0dADgOOKfLL+isAYiIU4A3qXfg0FZnZ+YTlTNIknYgEfEKcFrlGJsY/PttJy1Alw/naztefxgbcfcvSWpuQ+0AwBLgvK4W76QBiIiTGbx0p/YAsGAvVJAkTZaIeBk4vXKMaQYtwF+lF+7qAT0Ou//3AH/4J0ka1YbaAYDFdNQCFG8AIuIkBi/dqT0AnJuZj1bOIEnagUXES8AZlWNsBk4o3QJ08ZBe39G6TbwP+MM/SVJbG2oHABYBF5RetOiDOiJOBM4sueaIpnxtqSSprcx8FXixdg5gbUTsWnLB0jv19cCCHWU4iw+AxytnkCRNjuuA2gfJHUvhFqDYABARxwNnlVqvhZu6fn+yJKk/MvM14IXaOSjcApRsAMZh978J8Id/kqTSxqEFOAa4qNRiRQaAiFiQgwuGMOXuX5JUWma+DjxfOwewJiJ2K7FQqQZgHHb/07j7lyR1ZxxagKOBi0ss1HoAiIjjGI/d/01dvClJkiSAzHwDeK52DmB1iRagRAOwDti5wDptbAYerpxBkjT5xqEFOAq4pO0irQaAiFhCx8cVDsndvySpc5n5FvBs7RwMWoDd2yzQtgFYS/3d/0e4+5ckLZzrgH8qZzgSuLTNAiMPABGxGDi3zZcXcnNm/lk7hCSpHzLzbeCZ2jmAVRGxx6g3t2kA1gK7tLi/hI+BBytnkCT1z/XUbwGOoEULMNIAEBGL6Oh4woZucfcvSVpomfkO8HTtHLRoAUZtANZQf/f/CfBA5QySpP66gfotwOHA5aPc2HgAiIhjgfNH+bLCbsnMP2qHkCT1U2a+CzxVOwewMiL2bHrTKA3AGqDokYQj+BS4v3IGSZKuB2ofP38YcEXTmxoNABFxDIWPIxzRre7+JUm1ZeZG4MnaOYAVEbFXkxuaNgCrqb/7/wy4r3IGSZK2uoH6LcChNGwBhh4AIuJo4MKmiTpwa2b+XjuEJEkAmfke8ETtHDRsAZo0AKuBIkcQtvA5cG/lDJIk/d84tACHAFcOe/FQA0BEHAVcNGqigm5z9y9JGjeZ+T7wWO0cwPKI2HuYC4dtAFZRf/f/BXBP5QySJM3mRuDvyhkOZsgWYN4BICKOBC5um6iA2zPzt9ohJEmaSWZ+ADxaOweDFmCf+S4apgFYBbQ6crCAL4G7K2eQJGk+U9RvAQ4CrprvojkHgIg4ArikVKIW3P1LksZeZn4IPFI7B7BsvhZgvgZgJfV3/1/h7l+StOO4EfircoYDgavnumDWASAiDqfFMYMF3ZGZv9YOIUnSMDJzGni4cgyApRGx72x/nKsBWAmMdMRgQV8Dd1XOIElSU1PUbwEOYI4WYMYBICIOAy7rKlEDd2TmL7VDSJLURGZuBh6qnYNBC7DfTH+YrQFYQf3d/zfAnZUzSJI0qingz8oZ9geumekPkZnbfxBxKLAJaHy2sCRJGjvfA0sy8/ttP5ypAViOD39JkibFjC3Adg1ARBzCYPff6ExhSZI01n4AFm/bAvy/AViOD39JkibNfsDSbT/4rwGIiIOBaRwAJEmaRD8yaAG+g+0bgGX48JckaVLty+BZD2xpACLiIAa7/6HOEJYkSTuknxi0AN9ubQCW4cNfkqRJtw9bWoBgcGDA9JYPJUnSZPsJWLITsA44tXIYSZK0MHYD/gkGvwp09y9JUn/8HEDOe5kkSZoocx0HLEmSJpQDgCRJPeQAIElSDzkASJLUQw4AkiT1kAOAJEk95AAgSVIPOQBIktRDDgCSJPWQA4AkST3kACBJUg85AEiS1EMOAJIk9ZADgCRJPeQAIElSDzkASJLUQw4AkiT1kAOAJEk99C+mbgySTHLPeAAAAABJRU5ErkJggg==;rotation=0;" parent="120" vertex="1">
                    <mxGeometry x="330.3391304347826" y="11" width="28" height="28" as="geometry"/>
                </mxCell>
                <mxCell id="126" value="" style="shape=image;verticalLabelPosition=bottom;labelBackgroundColor=default;verticalAlign=top;aspect=fixed;imageAspect=0;image=data:image/png,iVBORw0KGgoAAAANSUhEUgAAAgAAAAIACAYAAAD0eNT6AAAABHNCSVQICAgIfAhkiAAAAAlwSFlzAAAOxAAADsQBlSsOGwAAABl0RVh0U29mdHdhcmUAd3d3Lmlua3NjYXBlLm9yZ5vuPBoAACAASURBVHic7d15tF1VneDx73sZXgwEQgYGmYIQBiGAggoSh1KkQAR1WWqt7kbLobCrFWfbWlVdirbaaDmhZa1iWWo7LLoLSkXUxhZKLYWAKCoEZBAJM0lIyEAgE3mv/9j3tc9H8t67955zfuec/f2s9VuJLs3eZ+8z/O4+++wNkiRJkiRJkiRJkiRJkiRJkiRJkiRJkiRJkiRJkiRJkiRJkiRJkiRJkiRJkiRJkiRpvIHoCihLM4AjgSOAwzt/HgbMAXYD9ur8CfAYsA7Y1Ik7gds7cQdwG7C9wrprcvZvu9m/LWECoCpMI90wTgFOBU4D9izo334cWAZcBVwD/BxvKFWzf9vN/pXUtaOBC4CVwEhFsRa4CFhawfHlzv5tN/tXUlfmAO8Gbqa6m8auYjnwLmD3Uo84L/Zvu9m/krq2B/B+UgYffeMYHxtIv2TmlXb07Wf/tpv9K6lrs4GPABuJv1FM5Uby4U6dNTX2b7vZv5J6chawgvgbQ7dxP/C6EtqjbezfdrN/JXXtQOC7xN8I+o3LO8eiP2b/tpv9K6knLwPWEH/xFxVrgDMLbaFms3/bzf6V1LXpwPnADuIv+qJjGLgQmFlUYzWQ/dtu9q+knswDrib+Qi87fkpaxSw39m+72b+SerIfcCPxF3dVcQt5vVe0f9vN/pXUkyOBe4i/qKuOB4AlBbRf3dm/7Wb/SurJUcDDxF/MUfEw6QbaVvav/dvmaHv/SqXZH7ib+Is4Ou4DDuqvKWvJ/rV/c4i29q9Umrnk9c5wsriFdi1Bav/avzlF2/pXKs0M8pgt3G38tNM2TWf/2r85Rlv6VyrVJ4m/WOsaH++jXevC/rV/c4029K9UmpeSFtSIvlDrGsPAy3tu3Xj2r/2bczS9f6XSHEi7lgctKx4GDuixjSPZv/av0dz+lUp1OfEXZ1Pish7bOJL9a/8aze1fqTSvIP6ibFqc1VNLx7B/7V+juf0rlWY2cBfxF2TT4h5gtx7au2r2r/1rNLd/SzctugIK9UHg7OhKNNCewBPAT4LrMRn7tzf2b7s1pX9LNxBdAYWZR1otbE5wPZpqI7AIWBdcj12xf/tj/7Zb3fu3EoPRFVCYt+PNox97AG+LrsQE7N/+2L/tVvf+rYQjAHnajfTrYUFwPZruEdKviEeD6zGe/VsM+7fd6tq/lXEEIE9vwZtHEeYBb46uxE7Yv8Wwf9utrv0rleom4mfitiVu7rLtq2D/2r9Gc/tXKs0JxF90bYvju+qBctm/9q/R3P6tlK8A8nNOdAV2YgfwM+C9wMnAPsDMTuzT+e/eR9rpbEdQHSfyuugKjGH/Fs/+nZj9KzXANGAV8Rn3aDxO2qVr7y6OYW/gE8DmGtR/NB6iHsm0/Wv/2r/N7V+pVCcSf7GNxqWkTUx6dRDwrRocx2g8o49jKYr9a//av83tX6lU7yf+QhsGzqeYT1AHOse0owbH9Z4Cjqdf9q/9a/82t3+lUl1B7EW2A/jzEo7rPxC/F/r3Sziubtm/9q/929z+lUozA9hE7EX2NyUe398FH9tGUhtHsX/tX/u3uf0rlWoJsRfYpZS78uQA8e8Ujy7x+CZj/9q/9m9z+1cq1Z8Rd2Ftpr8JQ1O1P2lmctRxvrL8Q9wl+9f+tX+b278h/PQhH0cEln0hcF8F5TwAfKGCcnYlso3t3/LZv+XKuX+lUn2VmKz6Cbr7Trhf+xA3q/grFRzfrti/9q/929z+DeEIQD6eFlTuMmB1heWtAq6tsLyxoto4smz7t91l278tZgKQj7lB5V4WUOZ3AsoE2DOoXLB/q2D/ViPH/g1hApCPOUHlLsukTIA9gsoF+7cK9m97y4TY/g1hApCP3YPK/X1AmXcGlAlxN2mwf6tg/1Yjx/4NUeZ3naqXraTduao2BGwLKHNLxWVCauNZAeWOlm3/lsv+ra7M3Po3hAlAPkaCyo06xzzeani81fB4q5HVM9FXAJIkZcgEQJKkDJkASJKUIRMASZIyZAIgSVKGTAAkScqQCYAkSRkyAZAkKUMmAJIkZcgEQJKkDJkASJKUIRMASZIyZAIgSVKGTAAkScpQVlsfjhO13aQkSeEcAZAkKUMmAJIkZcgEQJKkDJkASJKUIRMASZIyZAIgSVKGTAAkScqQCYAkSRkyAZAkKUMmAJIkZcgEQJKkDJkASJKUIRMASZIyZAIgSVKGTAAkScqQCYAkSRkyAZAkKUMmAJIkZcgEQJKkDJkASJKUIRMASZIyZAIgSVKGTAAkScqQCYAkSRkyAZAkKUMmAJIkZcgEQJKkDJkASJKUIRMASZIyND26AhkaCCp3JKjcqOPNjf3bbvZvu4X0ryMAkiRlyARAkqQMmQBIkpQhEwBJkjJkAiBJUoZMACRJypAJgCRJGTIBkCQpQyYAkiRlyARAkqQMmQBIkpQhEwBJkjJkAiBJUoZMACRJypAJgCRJGTIBkCQpQyYAkiRlyARAkqQMmQBIkpQhEwBJkjJkAiBJUoZMACRJypAJgCRJGTIBkCQpQyYAkiRlyARAkqQMmQBIkpQhEwBJkjJkAiBJUoYGoisQaCSo3JzbXJL0ZCHPI0cAJEnKkAmAJEkZMgGQJClDJgCSJGXIBECSpAyZAEiSlCETAEmSMmQCIElShkwAJEnKkAmAJEkZMgGQJClDJgCSJGXIBECSpAyZAEiSlCETAEmSMmQCIElShkwAJEnKkAmAJEkZMgGQJClDJgCSJGXIBECSpAyZAEiSlCETAEmSMmQCIElShkwAJEnKkAmAJEkZMgGQJClDJgCSJGXIBECSpAwNRFcg0Eh0BSRJiuIIgCRJGTIBkCQpQyYAkiRlyARAkqQMmQBIkpQhEwBJkjJkAiBJUoZMACRJypAJgCRJGTIBkCQpQyYAkiRlyARAkqQMmQBIkpQhEwBJkjJkAiBJUoZMACRJypAJgCRJGTIBkCQpQyYAkiRlyARAkqQMmQBIkpQhEwBJkjJkAiBJUoZMACRJypAJgCRJGTIBkCQpQyYAkiRlyARAkqQMmQBIkpSh6dEVyNBAdAUkSbUyElGoIwCSJGXIBECSpAyZAEiSlCETAEmSMmQCIElShkwAJEnKkAmAJEkZMgGQJClDJgCSJGXIBECSpAyZAEiSlCETAEmSMmQCIElShkwAJEnKkAmAJEkZMgGQJClDJgCSJGXIBECSpAyZAEiSlCETAEmSMmQCIElShkwAJEnKkAmAJEkZMgGQJClDJgCSJGXIBECSpAyZAEiSlCETAEmSMmQCIElShqZHV0ClmQbsA+wP7DfmzwXA3E7s2flzdufvo3YHZnT+/hiwrfP39cAIsL3z9zXA2jGxBngYeABYAawu5cikdB7mZCCoXNu5xbI62HGiTuyi2/xg4CjgMOBwYHEnDiY+wXuclAjc3flzBbC8EyvjqqUW8MFUDdu5GiHtbAJQvV7bfBpwDPBM4LgxsVdB9araauCmTiwHbgBuAYYjK6XG8MFUDdu5GiYAFat7ArA7cDxwCrC082dTH/ZTtQm4EbgauAb4KbAhtEaqKx9M1bCdq2ECULG6JQAzgJOAlwCnASeSfvXn7AngV8BVwBXAdZ3/TvLBVA3buRomABWrQwKwD/By4EzgT4A5ITVqjnXAlcAPOvFQbHUUyAdTNWznapgAVCzqxD4UeGUnTsZPMXs1AvwC+BfgUuC+2OqoYj6YqmE7V8MEoGK5ndht91vga8DXgQeD66Ly5Xb9ZvVgCpRVO5sAqG2GgZ8AXwK+BWwJrY3Kktv1m9WDKVBW7WwCoDZbD1wC/CPp6wK1R27Xb1YPpkBZtbMJgHJxDXARac7Atkn+t6q/3K7frB5MgbJqZxMA5WYV8E/A54BHguui3uV2/Wb1YAqUVTubAChXm4CLgU8BdwTXRd3L7frN6sEUKKt2NgFQ7naQ5gl8GLgtuC6autyu36weTIGyamcTACkZBr4J/DccEWiC3K7frB5MgbJqZxehkZJB4NWkDYm+RlqwSZJayxEAaee2kSYLfggnC9ZRbtdvVr9MA2XVziYA0sTWkZKAL+BGRHWS2/Wb1YMpUFbtbAIgTc3twLuB/xNdEQH5Xb9ZPZgCZdXOzgGQpuYI4PvAZcDBwXWRpL6ZAEjdeTlp46H3A9OC6yJJPcs1ATg+ugJqtNnABaTlhY8Jrosk9SS3BGAa6Zfbz6MrolZ4DvArUjIwFFwXSepKTpMAFwNfBU6Oroha6WbgPwI3RVckE05Oq4btXA0nAZZkADiX9EvNh7/KcgxwPWmEKYfrSlLDtX0EYF/gi8DLoiuirFwFvB54MLoiLeYv02rYztVwBKBgZ5KWdfXhr6qdCvwGOCu6IpK0K21MAAZIw7CXA/OC66J8LQS+A1wITA+uiyQ9SdteAexBmuj3iuiKSGP8O/BaYFV0RVrEoelq2M7VcCngPh0HfAt4WnRFpJ24H/gz/AS1KD6YqmE7V8MEoA/nABcBT4muSA2NkCajrejEfcAaYO24eAJY3/n/bAMe6/x9N2Bm5+9zScPZ88fFQuBAYBFwCPBU2nNuFWkL8Fbgy9EVkVQrJgA9GAQ+BbwzuiI18ATwO2A5cGPnz9uAe4GtFddliLRe/hHAsWNiMS6fC/BJ0jyV4eiKSKoFE4AuzQK+AbwquiJBVgLLgKuBa0mzzreE1mhys0jLMD8XWNr5c5/QGsX5V+B1wOboikgKl9urlr7MA35GarRcYh1wKfBG4LD+m7A2FgNvIj0Q1xPfzlXGMtLrE0l5i7oHNc7BpN3Yom/eVcRy4GPA88jjU7LpwPOB/0FaWje6/auIO0mvSiTlK+r+0yjHkya0Rd+0y4zfAucDTy+myRrtaOBDpLkM0f1SZqwBTiyozSQ1T9S9pzFOBTYSf7MuI1YBnyBNlNPOHUeaPLea+P4qI9aT5kVIyk/UfacRTiNNloq+SRcZO4ArSRPB/Hxx6mYCrya13TDx/VhkPEY61yXlJeqeU3un066H/0bgM7hgUREOBT4LPEp8vxYVW4Czi2wkSbUXdb+ptT+lPQ//+0nffs8ttIUEsBfw18ADxPdzEbGNNMohKQ8mAOO0Zdj/TuAv+MNqeirPTNJnkncR3+9FJAGOBEh5MAEY4yXA48TfhPuJe4F3kFbFU7VmkOZW/J7486Cf2AqcUXDbSKofE4COF9Psh/9K0nrv/uKPNwScR/rKIvq86DU24dcBUtuZAABLaO5qcNtIe7/vWXirqF+7kdZW2EL8edJLbACeVXSjSKqN7BOAg2nuIj+X0a7ledtqMXA58edLL7EGVwyU2irrBGAezVze9y78bruJzgDuJv786TbuxL0DpDbKNgGYRfM29tkBXATsXkJ7qBqzgQtI2yhHn0/dxPWduktqjywTgEHgEuJvqt3ETcCzy2gMhTiJtOlS9HnVTVxKunYktUOWCcBniDvwbmMHab1+Z/e3zxBpn4EmLS3896W0hKQI2SUAb5igUnWL+4AXldMMqpFTadZqgm8opxkkVSyrBOAZNOdb/0tJkxSVh/nAt4g/76YSm4ETymkGSRXKJgHYi2as0LadtHa/8nQuaW2H6PNwsrgHvwyQmi6LBGAQ+H5BFS8zVuOQv+B5wEPEn4+TxVXAtJLaQFL5skgAzi+o0mXGL4CDSjp+Nc/+wDLiz8vJ4mNlNYCk0rU+ATidNJM++kY5UXwdZ/nryYaAi4k/PyeKYeDMshpAUqlanQAcAKyt6IB6vXl+GBgoqwHUeAPAR4k/VyeKVcC+ZTWApNK0NgEYAK4IOripxHbgLaUdvdrmL6j35MAfYCIrNU1rE4C3BR7cZLEJeEl5h66WOh14jPjzd1fx9vIOXVIJWpkAHAo8GnhwE8V64JTyDl0tt5S0TW/0ebyz2AIcW96hSypY6xKA6cC1gQc2UawBTizv0JWJZ1HfuS03kSYvSqq/1iUAfxt4UBPFSmBJicddN607sWrmWNI5FX1e7yzOL++ww0W3bS7XU/Rx284lRlmThY4Hfk79PqlbT1rg59fRFalQ1Emd00S0JcCPScsI18k24JnALdEVKUHkzTpC1PVkO1cjpJ3L2FJ0OvBV6vfw30Ca8JfTw1/VWA6cAWyMrsg4M4Ev4tbBknaijBvDW6nfBKTHgbOBX0ZXRK31C1ISsCm6IuOcTLomJemPFD3csS9wG7Bnwf9uP7aTVki7MroiQXwFUK3TgcuBGdEVGeNR4Bjg3uiKFMih6WrYztVoxSuAj1Ovh/8IaVe3XB/+qt4PgL+KrsQ4c4DPRldCUnudQlpSN3oW59j4UKlH3Ay5zaatizouG3xaqUdcrei2zOV6ij5u27kBxzuNNLkuuvPGxv8i32HosRp9YjXYAPA14q+DsXELaZJuG0S3ZS7XU/Rx284NON7zAg9gZ3EN9fsKIUqjT6yGGwKuI/56GBv/udQjrk50O+ZyPUUft+1cYhTxC3k+cCcwt4B/qwgrgROAB6MrUhNRJ7WjL8kBwA3A3tEV6VgDLCatidFkkTfrCFlNTguUVTsXMQnwv1Kfh/924DX48Fd93A+8FngiuiIdC4APRFdCUvPtS712RXMXtCfLbSitrt5D/PUxGluBRaUebfmi2zCX6yn6uG3nGh/v5wMrPj4u7fdgWqqRJ1YLDQDfJv46GY2Lyj3c0kW3Xy7XU/Rx284lRj/vOw4C7qAeO449ABxH2plNfyzqpHYOwJPtBdwIHBhdEdLrsiOBu6Ir0qPIm3WErN5NB8qqnfuZA/BB6vHwHwZejw9/1d864E2kczbaDODvoishqXkWk35BRA/XjJBWH9Su5TaU1gSfIv66GSFNTDyy5GMtS3Tb5XI9RR+37VzD4704sMJj4yb83n8yjTqxMjFE2kEw+voZAb5R8rGWJbrdcrmeoo/bdi4xennfsYj03f+0Hv6/RRoGlgLXBtej7qJOaucATOzZwDLir6MdwOE0by5A5M06QlbvpgNl1c69zAF4J/E3LUibm/jwV1NdD3whuhKka/lt0ZWQVL1us505wH3E7/h3D2l707rtvV5HjgDU126kVwGHBNfjUdJXPU1aHdBfptWwnavRiBGANxP/8Ie0xa8PfzXdY9Tj1/cc4C3RlZBUrW6ynWmk7/6fVlJdpuoy4JXBdWgSRwDq73vAmcF1eJA0ErEtuB5T5S/TatjO1aj9CMAriH/4bwXeF1wHqWjvJv7B+1TSngWSMtFNAvDu0moxdZ8lfYEgtckdwD9EV4L0ak1SJqY63HEC8MsyKzIFq0ifK20MrkfT+AqgGeaSEoGFwfV4OnBrcB2mwqHpatjO1aj1K4A3lFqLqfkwPvzVXuuBj0ZXgjTRV1IGppLtzCRttrOg5LpM5F7Sr/+tgXVoKkcAmmMW8DvggMA6rAX2p/7Xmr9Mq2E7V6O2IwAvI/bhD/Dfqf8NSerXFuBjwXWYT5rwK6nlppIAnFN6LSb2e+CrwXWQqvIl4O7gOvxlcPmSKjBZArAAeGkVFZnAR0g7D0o52Eb8XIAXAvsF10FSsPOI3Znpftztr1+57arVBkOkhXkir73zSj9KSaNCrvPJRgBeV9TR9ehzxC+QIlVtK/HrArwmuHxJgQ4n9hfIRtK30eqPIwDNNI+0SU9U/+0g9msEKSe1GwF4eZFH14N/plm7k0lFegT4cmD5g8CrA8uXFOgnxP76iN53oC0cAWiuw4Bh4vrwuvIPURI1u0/vRZp5H1WpH3bZeNq1Wp1Y6tqPiOvDYfwaQKpCyDW+q1cApwPTCz7AbnwxsGypTiKvhQHgtMDyJZVoVwnAyyqtxR9bA1weWL5UJ98EHg4s//TAsiWVaGcJwDRiL/qv4LK/0qhtwDcCyz+NdE+Q1DI7SwBOIX2CFOXrgWVLdRSZAMwDnh1YvqSS7CwBOKPyWvzBrcDywPKlOvoVaZfAKJH3BEkl2VkC8PzKa/EHlwSWLdVZ5LXxksCyJVVkiLQladRnR08v/xCz42eA7bCEuL7cBswu/xClbNXiM8ATSUlAhJuB3waVLdXdcuC2oLJnAM8KKltSScYnAEtDapH46Z80se8Gln1KYNmSSjA+AYi8yK8ILFtqgshrxARAapmBcX9fBSwMqMeGTrnbA8puu6j38QOT/0/UpRmkRYH2DCh7PTCftDywpGKF3KfHjgAcTszDH+BKfPhLk9kO/Dio7Lk4SVdqlbEJgMP/Uv1FXisnBJYtqWBjE4BnhNUibT0saXL/Hlj2ksCyJRVsbAIQNby3CrgrqGypae4AVgeVbQIgtcjYBOCooDpcHVSu1EQjwLVBZR8bVK6kEowmAHOB/YLqcE1QuVJTRV0z+wJ7B5UtqWCjCUDk7N5lgWVLTRQ5auZrAKklRhOAqOH/J4Abg8qWmupGYEdQ2ccElSupYNEjAHeQNh+SNHWPA3cGlX1IULmSChadANwUVK7UdFHXjgmA1BKjCcARQeUvDypXarqoa8cEQGqJQdKa7U8NKt8RAKk3UQnAoqByJRVsEJgHDAWVf3tQuVLTRV07c0ibAklquOnEff8/DNwbVLbK5y6E5VpBauOI4z0EWBtQ7lhR51eUqPPadm6xQdLiHhEeBLYGlS013RZgZVDZBwaVK6lAg8S9/787qFypLe4OKndBULmSChQ5ArAiqFypLaKuIRMAqQUiE4D7gsqV2iJqDo2TAKUWiHwFsCaoXKktoibimQBILTD6GWCE6FnEUtNFJdG+ApBaYBB4SlDZjgBI/XEEQFLPBolbBMgRAKk/UUn0HkHlSirQIDArqOxHgsqV2iLqGor60SCpQJGvADYHlSu1RdQ1NDOoXEkFihwBcBVAqT9R15AjAFILRCYA24LKldoi6hpyBEBqARMAqbkcAZDUMxMAqblMACT1bJDMtj+UJEkpAfA9otRMUb/EHb2TWsAEQGquqARge1C5kgo0SNx7RBMAqT+OAEjqWeQIgBOJpP5EJdEmAFILRI4ARK1AKLVF1DXkKwCpBSJHAKK2IZbaIuoa2hRUrqQCDQIbg8p2T3GpPwuDynUjL6kFBonbltcEQOpP1DW0PqhcSQUaJG5P8flB5UptEXUNrQsqV1KBHAGQmisqAXAEQGqByBGAA4PKldoi6hpyBEBqgcgRgEVB5UptcUhQuQ8FlSupQJEjAFE3L6ktFgWVe39QuZIKNEjcxbwfrgYo9eopwL5BZZsASC0wHVgRVPYgcDBwR1D5uXC753ZaRFzfPhBU7lie19WwnVtsEFgNPBZU/pFB5UpNF3XtbCbutaGkAg12/rw7qPwlQeVKTRd17dwXVK6kgkUnAMcGlSs1XdS14ys7qSWiEwBHAKTemABI6stoAnBXUPmH47bAUrdmA08LKtsEQGqJ0QTg5qDypwHHBZUtNdXxpGsnggmA1BKjCcBNgXU4JbBsqYmWBpZ9W2DZkgo0mgCsJH0OGOG5QeVKTRV1zawj3SsktcDgmL9HjQJE/pqRmmaAuATgBmAkqGxJBatDArA3cFhQ2VLTHAksDCr7V0HlSipBHRIAgBcGli01yQsCy/51YNmSCjY2AYjM7k8PLFtqkshrxREAqUXGbvQwCKwF5gbUYwNpWHN7QNlSU8wkrcM/J6DsjcBewHBA2VLbhcytGTsCMAxcF1EJYE/gpKCypaZYSszDH+BafPhLrTI47j9fE1KL5IzAsqUmiLxGfhZYtqQS1CkBODuwbKkJzgos2wRAarnZwDbS+4iIOLr8Q5Qa6XjirsstwKzyD1HKVsi1PX4E4HHgNyUd4FS8JrBsqc5eHVj2L0hJgKQWGZ8AAPyw8lr8wWsDy5bqLPLa+HFg2ZIqtJS4ocYR3B1QGu9EYq/Jk8s/RClrtXgFAOlTwHUlHOBUnRNYtlRH/ymw7EeA6wPLl1SxS4j7tbEGGCr/EKVGGAIeJu56vLj8Q5SyV5sRAIArij66LswHXh5YvlQnrwIWBJYfeS+QFGA/0qpfUb86rir/EKVG+BFx1+EO0m6dksoVdY3v0s8DKzUMHNpF40lttJjYRPyn5R+iJIKu8V29AoA0DyDKAHBeYPlSHbydP96wq2qXBpYtKdCBxP762ESaDyDlaB7wKLGjcAeWfpSSoIYjAPeRdgCLshvwl4HlS5HeCuweWP4y0j1AUqbeTtwvkBFgJa5BrvwMAQ8Re+29s/SjlDQq5Dqf7P3iU0m/AiYaKSjbm4AvB5YvVe1c4KLoSkhqt6lMMPo34EVlV2QCK4AjgO2BdZCqMgTcDhwcXRFJ7TaVX/ZfKr0WEzsEeENwHaSqvBkf/pIqMJURgCHgfmJXI3sQOAzYHFgHqWyzgN8BB0RXRFL7TWUEYCvwjbIrMomnkn4ZSW32V/jwl1SRqS4yciTw2y7+92VYDRwObAisg1SWvYA7iB1pk5SRaVP8360BTiN2YZDdgOnAlYF1kMpyAbGTbSVlpptf9OcAXyurIlO0DTiG9J5UaosjgZuAGdEVkZSPbr7v/9+kyYCRZgKfCq6DVLRP48NfUsWm+goA0trgQ8CpJdVlqo4ArgfuDK6HVISzgA9EV0JSfrqd1DeXtDJg5BrlAPcCR5M2DJKaag5wC266IylANyMAAFuAfYCTSqhLN/YkTQr8QXA9pH58mvgRNUmZ6uWzvkWkSXjTi61K14aB55F2LZOa5jnANXSfhEtSIXrZ5Odu4F8LrkcvBkkbpgxFV0Tq0hBpgysf/pLC9HoDWk5atSxyl0CAvUnLp7o2gJrkk6TJf5IUptcEYC2wGDiuwLr06mT8KkDNcRrwD8SuqilJfd2EDgVupR7fLz9ISkbWRFdEmsAC0oI/+0VXRJL6eQe5DjgIeGZBdenHHNKIxCXRFZF2YYC0mNYJ0RWRJOh/EtKNwH8h/osAgKOAR4Froysi7cRfk64VSaqFfhOADcBC0idNdfAi4GekLxWkungx8BXiJ81K0v9XxESkum1jupo0zBq9b4EEaZW/G0iJsiTVRhG/SNYB5xfw7xRlDL7IwQAACAVJREFUb+BSXB9A8WYB38SHv6QaKmpI8p9IawPUxUmkrYv91EpRBoB/Bp4VXRFJ2pmiViIbAW4HXl/Qv1eEo0mTE38UXRFl6QLSYlmSVEtFLkW6AngGcGSB/2a/nk+aC/Dr6IooK+eSEgBJqq2ih8gPBm4mfrvgsbYDZ+POgarGmcBl1OPTWEnapaI3I9kAbAZOL/jf7cc04FXA1cA9wXVRu50CfIc0+U+Saq2MSXKDpG/xn1vCv92PjaS9138RXRG10rOBq0irUkpS7ZU1S/4Y0rfPM0v693u1nrRYkHMCVKQlwE+AecH1kKQpK2s/8tWkh/8LSvr3ezULeAXwQ2BVcF3UDseRtqOuy0JYkhRuiLQ2wEgNYy1+n63+PQd4hPjzeWfxa1wMS1Kgo4HHib8Z7iw2kV4HSL14PmnSa/R5vLPYTHotIUmh3kn8DXFX8Rj1+mJBzXAm9U1sR4C3lHfokjR1A8D3iL8p7iq244ptmro3AtuIP293Fd8u79AlqXt7AyuJvzlOFBfidq3atQHSplfR5+lE8QBORpRUQ2cBw8TfJCeKi3HilJ5sFvAvxJ+fE8UO4MVlNYAk9esC4m+Uk8V1wAFlNYAa50DgeuLPy8nCvQck1dogcAXxN8vJ4mHSqoHK2wuo/6urEdI6BO49IKn25gF3EX/TnCyeAN5Peaslqr4GgHdQ78l+o3EXvveX1CAnkr5Vjr55TiW+jTfYnCwELif+vJtKbCSttSFJjfJG4m+gU40H8JVADv4UeIj4820qMUxa1lqSGunvib+RdnPDvRC/EmijIdIkuh3En2dTjQ+U0hKSVJFB4FLib6bdxHLgpDIaQyGeC9xC/HnVTXwL56ZIaoFZwDXE31S7iWHgItz7vclmk371P0H8+dRN/BzYvYT2kKQQC4E7ib+5dht3Ay8tvjlUsrOAe4k/f7qNW0hf0UhSqxwBrCH+JttLfA84vPgmUcGOpBnrUOws7sEFqiS12PHUd3/1yWIb6bWAnwzWz1zScP9W4s+TXuJh4KjCW0WSamYpsIn4m26vsZq0iMysohtGXXsK8C7SAzT6vOg1HgWeVXTDSFJdnUpzFgraVdxH2mZ4ZsFto8nNBN5KWr8h+jzoJ7YCLym4bSSp9s6mGUuxThYrgDfj+gFVGALOJU3OjO73fmML8LJCW0eSGuTVtCMJGCGtMPc3OIu7DPOAv6UZG/dMJR4nrUooSVk7m/RrKPqmXFQ8CnwOOKzIRsrUYuDzNHvOyPjYBPxJkY0kSU32QtLGJ9E356Ljl6Qh69mFtVT7DZFGhq4kLcgU3Yc+/CWpZEuB9cTfpMuINcCngWcW1lrtcwLwWWAt8f1VRqwDnlNYa0lSy5xIcxcLmmrcAXwEOLagNmuy44CP0sxVIruJ1aQER5I0gSNo/wNhNG4FPk4aFp5RROPV3EzgRcAngNuIb/+q+vhpRTSeJOVgIbCM+Jt3lbGRtAvcuaQlbdtggHQsbwEuI02QjG7nKuNHwF59t6IkZeYpNG8r4SJjNemh+V7g5E571N1s0va77wO+Q7NX6Os3/icuEiUpUNP3FB8kDZG/N7oiNbAD+D1wI7C8E7eTFiLaUnFdZgGHkH7dL+nEscChwLSK61I3I8AHSfM8RoLrIiljTU8ARr0B+Edcf39XHiIlAiuA+0m/vNeOiTXAE6TXDDuA7aRP0iDtPT+D9ODeo/P3+eNiIXAgsIj04N+v/ENqpK3AG4GLoysiSW3yDOAu4od2DWNncQ9wEpKkUswHfkD8zd4wxsZ3cQloSSrdAPB+0lB29I3fyDu2A+eT5qpIkipyJrCK+IeAkWc8ADwPSVKIfYAriH8YGHnFVcDeSJJCDZAWz3mM+AeD0e54nPT6ySF/SaqRJcBNxD8kjHbGz3CLZ0mqrRmkX2hbiH9gGO2I0V/9uS9wJEmNsBj4MfEPD6PZcS3t2ZdBkrIxCJxHfhvQGP3HBuBd+KtfkhrtINIue9EPFaP+MQx8BdgXSVJrvBD4DfEPGaOecQNpJ0NJUgsNAq/DBYSMP8Ra4B043C9JWdgL+DR+LZBzbAY+BcxFkpSdA4ALMRHIKbYCFwH7I0nK3sGkh8J24h9QRjmxDfgacAiSJI1zBPANTATaFNtIyd1BSJI0iYOBzwAbiX+AGb3FBuCzwCIkSerSHNIM8XuJf6AZU4s7SUv3OrlPktS3mcA5pA1hoh9wxpNjGPi/wJm4U58kqSRHkT4hfJj4B1/usQb4fKdPJEmqxBDw58BVwBPEPwxzic3AJcDZpN0fJUkKM5+0wuCVwA7iH5Jtix3A1aT5GAum2CeSJFXqANJOcteR3k1HPzybGtuAfwPeg5/wSVLXBqIrkLmFpE2ITiUNWbvL3MTWAD8GvgdcDqyPrY4kNZcJQH1MA54NnEFKCE7Ed9hbSbvwXUV66N9AGjWRJPXJBKC+ZgDHAkuBU4AXkeYStNlK4JekB/3VwDWkSX2SpIKZADTHIPB04ATgGOA4YAnNfW3wAHAr8FvgemAZsCK0RpKUEROA5ltIGik4GjiUtLTtIZ0/54TVKtkC3E960N8K3AbcAtxOWopXkhTEBKDdFpCSgQNIrw8Wdv5c0PlzPilJmN353+9JGmmYAeze+e/Wdf5cT5p9v4H0Hn4jaVOk1cAq0i/61cCDnf/80Jj/ryRJkiRJkiRJkiRJkiRJkiRJkiRJkiRJkiRJkiRJkiRJkiRJkiRJkiRJkiRJkiRJkiTV3v8DWNrPap47augAAAAASUVORK5CYII=;rotation=0;" parent="120" vertex="1">
                    <mxGeometry x="9.17608695652174" y="11" width="28" height="28" as="geometry"/>
                </mxCell>
            </root>
        </mxGraphModel>
    </diagram>
</mxfile>